<?xml version="1.0" encoding="utf-8"?>
<!-- Generator: Adobe Illustrator 18.1.0, SVG Export Plug-In . SVG Version: 6.00 Build 0)  -->
<svg version="1.1" id="Layer_1" xmlns="http://www.w3.org/2000/svg" xmlns:xlink="http://www.w3.org/1999/xlink" x="0px" y="0px"
	 viewBox="0 0 440.5 156.5" style="enable-background:new 0 0 440.5 156.5;" xml:space="preserve">
<style type="text/css">
	.st0{opacity:0.49;}
	.st1{fill:none;stroke:#000000;stroke-miterlimit:10;}
	.st2{fill:none;stroke:#000000;stroke-miterlimit:10;stroke-dasharray:6,6;}
	.st3{fill:none;stroke:#FF0000;stroke-miterlimit:10;}
	.st4{fill:none;stroke:#999999;stroke-miterlimit:10;}
</style>
<g class="st0">
	<line x1="6.5" y1="120.5" x2="427.5" y2="120.5"/>
	<g>
		<line class="st1" x1="6.5" y1="120" x2="9.5" y2="120"/>
		<line class="st2" x1="15.5" y1="120" x2="421.5" y2="120"/>
		<line class="st1" x1="424.5" y1="120" x2="427.5" y2="120"/>
	</g>
</g>
<line class="st1" x1="42" y1="112.5" x2="42" y2="130.5"/>
<line class="st1" x1="77" y1="112.5" x2="77" y2="130.5"/>
<line class="st3" x1="113" y1="112.5" x2="113" y2="130.5"/>
<line class="st1" x1="150" y1="112.5" x2="150" y2="130.5"/>
<line class="st1" x1="185" y1="112.5" x2="185" y2="130.5"/>
<line class="st1" x1="221" y1="112.5" x2="221" y2="130.5"/>
<line class="st3" x1="257" y1="112.5" x2="257" y2="130.5"/>
<line class="st1" x1="294" y1="112.5" x2="294" y2="130.5"/>
<line class="st1" x1="330" y1="112.5" x2="330" y2="130.5"/>
<line class="st1" x1="366" y1="112.5" x2="366" y2="130.5"/>
<g>
	<path d="M30.133,149.182c-0.214,0-0.394-0.028-0.54-0.086v-0.495c0.157,0.046,0.312,0.068,0.465,0.068
		c0.178,0,0.308-0.049,0.391-0.146c0.083-0.097,0.125-0.244,0.125-0.442v-4.334h0.615v4.313c0,0.374-0.089,0.654-0.269,0.841
		C30.742,149.088,30.479,149.182,30.133,149.182z M30.526,142.732c0-0.137,0.035-0.236,0.104-0.298
		c0.069-0.062,0.155-0.093,0.258-0.093c0.096,0,0.18,0.031,0.251,0.093c0.072,0.062,0.108,0.161,0.108,0.298
		c0,0.134-0.036,0.233-0.108,0.297c-0.071,0.063-0.155,0.096-0.251,0.096c-0.103,0-0.188-0.032-0.258-0.096
		C30.561,142.966,30.526,142.866,30.526,142.732z"/>
	<path d="M32.959,143.747v2.417c0,0.303,0.068,0.527,0.203,0.675c0.136,0.146,0.346,0.22,0.631,0.22c0.385,0,0.666-0.106,0.841-0.32
		c0.175-0.215,0.263-0.56,0.263-1.036v-1.955h0.619v3.753H35.01l-0.089-0.496h-0.031c-0.112,0.181-0.27,0.319-0.475,0.418
		c-0.205,0.098-0.443,0.146-0.714,0.146c-0.451,0-0.792-0.108-1.02-0.324c-0.229-0.217-0.344-0.563-0.344-1.039v-2.458H32.959z"/>
	<path d="M37.321,147.5h-0.615v-5.318h0.615V147.5z"/>
	<path d="M39.86,144.215l-0.041-0.074c0.05-0.205,0.131-0.461,0.243-0.766c0.112-0.306,0.231-0.597,0.359-0.872h0.455
		c-0.15,0.579-0.268,1.149-0.352,1.712H39.86z"/>
	<path d="M43.442,147.5h-0.602v-3.493c0-0.31,0.009-0.597,0.027-0.861c-0.064,0.068-0.132,0.132-0.205,0.191
		c-0.232,0.193-0.486,0.403-0.762,0.629l-0.321-0.413l1.354-1.05h0.509V147.5z"/>
	<path d="M45.914,147.5l2.051-4.437h-2.697v-0.561h3.353v0.476l-2.03,4.521H45.914z"/>
</g>
<g>
	<path d="M103.633,149.182c-0.214,0-0.394-0.028-0.54-0.086v-0.495c0.157,0.046,0.312,0.068,0.465,0.068
		c0.178,0,0.308-0.049,0.391-0.146c0.083-0.097,0.125-0.244,0.125-0.442v-4.334h0.615v4.313c0,0.374-0.089,0.654-0.269,0.841
		C104.242,149.088,103.979,149.182,103.633,149.182z M104.026,142.732c0-0.137,0.035-0.236,0.104-0.298
		c0.069-0.062,0.155-0.093,0.258-0.093c0.096,0,0.18,0.031,0.251,0.093c0.072,0.062,0.108,0.161,0.108,0.298
		c0,0.134-0.036,0.233-0.108,0.297c-0.071,0.063-0.155,0.096-0.251,0.096c-0.103,0-0.188-0.032-0.258-0.096
		C104.061,142.966,104.026,142.866,104.026,142.732z"/>
	<path d="M108.196,147.5l-0.12-0.533h-0.027c-0.187,0.234-0.373,0.394-0.559,0.477c-0.186,0.083-0.419,0.125-0.702,0.125
		c-0.369,0-0.659-0.097-0.868-0.291c-0.209-0.193-0.314-0.467-0.314-0.82c0-0.761,0.601-1.159,1.801-1.195l0.636-0.024v-0.222
		c0-0.285-0.062-0.495-0.185-0.631s-0.32-0.203-0.591-0.203c-0.198,0-0.386,0.029-0.562,0.088c-0.176,0.06-0.342,0.126-0.497,0.199
		l-0.188-0.462c0.189-0.101,0.396-0.179,0.619-0.235c0.223-0.058,0.444-0.086,0.663-0.086c0.454,0,0.791,0.101,1.012,0.301
		s0.332,0.52,0.332,0.957v2.557H108.196z M106.928,147.072c0.344,0,0.615-0.093,0.812-0.278c0.197-0.186,0.295-0.449,0.295-0.791
		v-0.339l-0.554,0.024c-0.431,0.016-0.745,0.084-0.942,0.205c-0.197,0.121-0.295,0.312-0.295,0.571c0,0.195,0.06,0.346,0.179,0.451
		C106.543,147.021,106.711,147.072,106.928,147.072z"/>
	<path d="M112.362,147.5v-2.399c0-0.306-0.068-0.532-0.203-0.682c-0.136-0.149-0.348-0.224-0.638-0.224
		c-0.385,0-0.665,0.106-0.839,0.319c-0.175,0.213-0.262,0.56-0.262,1.04v1.945h-0.615v-3.753h0.496l0.092,0.513h0.034
		c0.116-0.185,0.279-0.327,0.489-0.429s0.441-0.152,0.694-0.152c0.46,0,0.802,0.111,1.025,0.335s0.335,0.57,0.335,1.043v2.443
		H112.362z"/>
	<path d="M115.483,144.215l-0.041-0.074c0.05-0.205,0.131-0.461,0.243-0.766c0.112-0.306,0.231-0.597,0.359-0.872h0.455
		c-0.15,0.579-0.268,1.149-0.352,1.712H115.483z"/>
	<path d="M119.065,147.5h-0.602v-3.493c0-0.31,0.009-0.597,0.027-0.861c-0.064,0.068-0.132,0.132-0.205,0.191
		c-0.232,0.193-0.486,0.403-0.762,0.629l-0.321-0.413l1.354-1.05h0.509V147.5z"/>
	<path d="M122.579,142.432c0.456,0,0.819,0.105,1.09,0.317s0.407,0.505,0.407,0.878c0,0.251-0.076,0.476-0.228,0.674
		c-0.151,0.198-0.394,0.383-0.726,0.554c0.403,0.196,0.69,0.4,0.86,0.613c0.169,0.213,0.254,0.459,0.254,0.737
		c0,0.414-0.147,0.745-0.441,0.992s-0.693,0.371-1.196,0.371c-0.533,0-0.946-0.116-1.237-0.349s-0.438-0.563-0.438-0.995
		c0-0.569,0.345-1.015,1.036-1.336c-0.31-0.178-0.533-0.369-0.67-0.574s-0.205-0.437-0.205-0.693c0-0.363,0.136-0.651,0.409-0.867
		C121.766,142.539,122.127,142.432,122.579,142.432z M121.526,146.232c0,0.264,0.094,0.471,0.282,0.621
		c0.188,0.15,0.447,0.227,0.777,0.227c0.326,0,0.582-0.077,0.769-0.231c0.187-0.153,0.28-0.366,0.28-0.638
		c0-0.219-0.089-0.413-0.267-0.584s-0.476-0.333-0.896-0.485c-0.331,0.142-0.571,0.299-0.721,0.472S121.526,145.992,121.526,146.232
		z M122.572,142.93c-0.269,0-0.483,0.064-0.643,0.191c-0.16,0.128-0.239,0.305-0.239,0.53c0,0.144,0.031,0.271,0.092,0.38
		s0.15,0.207,0.267,0.293c0.116,0.087,0.302,0.184,0.557,0.291c0.312-0.13,0.534-0.272,0.665-0.428
		c0.131-0.154,0.196-0.333,0.196-0.536c0-0.228-0.081-0.405-0.243-0.531C123.063,142.993,122.845,142.93,122.572,142.93z"/>
</g>
<g>
	<path d="M176.133,149.182c-0.214,0-0.394-0.028-0.54-0.086v-0.495c0.157,0.046,0.312,0.068,0.465,0.068
		c0.178,0,0.308-0.049,0.391-0.146c0.083-0.097,0.125-0.244,0.125-0.442v-4.334h0.615v4.313c0,0.374-0.089,0.654-0.269,0.841
		C176.742,149.088,176.479,149.182,176.133,149.182z M176.526,142.732c0-0.137,0.035-0.236,0.104-0.298
		c0.069-0.062,0.155-0.093,0.258-0.093c0.096,0,0.18,0.031,0.251,0.093c0.072,0.062,0.108,0.161,0.108,0.298
		c0,0.134-0.036,0.233-0.108,0.297c-0.071,0.063-0.155,0.096-0.251,0.096c-0.103,0-0.188-0.032-0.258-0.096
		C176.561,142.966,176.526,142.866,176.526,142.732z"/>
	<path d="M178.959,143.747v2.417c0,0.303,0.068,0.527,0.203,0.675c0.136,0.146,0.346,0.22,0.631,0.22
		c0.385,0,0.666-0.106,0.841-0.32c0.175-0.215,0.263-0.56,0.263-1.036v-1.955h0.619v3.753h-0.506l-0.089-0.496h-0.031
		c-0.112,0.181-0.27,0.319-0.475,0.418c-0.205,0.098-0.443,0.146-0.714,0.146c-0.451,0-0.792-0.108-1.02-0.324
		c-0.229-0.217-0.344-0.563-0.344-1.039v-2.458H178.959z"/>
	<path d="M183.321,147.5h-0.615v-5.318h0.615V147.5z"/>
	<path d="M185.86,144.215l-0.041-0.074c0.05-0.205,0.131-0.461,0.243-0.766c0.112-0.306,0.231-0.597,0.359-0.872h0.455
		c-0.15,0.579-0.268,1.149-0.352,1.712H185.86z"/>
	<path d="M189.442,147.5h-0.602v-3.493c0-0.31,0.009-0.597,0.027-0.861c-0.064,0.068-0.132,0.132-0.205,0.191
		c-0.232,0.193-0.486,0.403-0.762,0.629l-0.321-0.413l1.354-1.05h0.509V147.5z"/>
	<path d="M192.956,142.432c0.456,0,0.819,0.105,1.09,0.317s0.407,0.505,0.407,0.878c0,0.251-0.076,0.476-0.228,0.674
		c-0.151,0.198-0.394,0.383-0.726,0.554c0.403,0.196,0.69,0.4,0.86,0.613c0.169,0.213,0.254,0.459,0.254,0.737
		c0,0.414-0.147,0.745-0.441,0.992s-0.693,0.371-1.196,0.371c-0.533,0-0.946-0.116-1.237-0.349s-0.438-0.563-0.438-0.995
		c0-0.569,0.345-1.015,1.036-1.336c-0.31-0.178-0.533-0.369-0.67-0.574s-0.205-0.437-0.205-0.693c0-0.363,0.136-0.651,0.409-0.867
		C192.143,142.539,192.505,142.432,192.956,142.432z M191.903,146.232c0,0.264,0.094,0.471,0.282,0.621
		c0.188,0.15,0.447,0.227,0.777,0.227c0.326,0,0.582-0.077,0.769-0.231c0.187-0.153,0.28-0.366,0.28-0.638
		c0-0.219-0.089-0.413-0.267-0.584s-0.476-0.333-0.896-0.485c-0.331,0.142-0.571,0.299-0.721,0.472S191.903,145.992,191.903,146.232
		z M192.949,142.93c-0.269,0-0.483,0.064-0.643,0.191c-0.16,0.128-0.239,0.305-0.239,0.53c0,0.144,0.031,0.271,0.092,0.38
		s0.15,0.207,0.267,0.293c0.116,0.087,0.302,0.184,0.557,0.291c0.312-0.13,0.534-0.272,0.665-0.428
		c0.131-0.154,0.196-0.333,0.196-0.536c0-0.228-0.081-0.405-0.243-0.531C193.44,142.993,193.223,142.93,192.949,142.93z"/>
</g>
<g>
	<path d="M140.891,147.5l-0.12-0.533h-0.027c-0.187,0.234-0.373,0.394-0.559,0.477c-0.186,0.083-0.419,0.125-0.702,0.125
		c-0.369,0-0.659-0.097-0.868-0.291c-0.209-0.193-0.314-0.467-0.314-0.82c0-0.761,0.601-1.159,1.801-1.195l0.636-0.024v-0.222
		c0-0.285-0.062-0.495-0.185-0.631s-0.32-0.203-0.591-0.203c-0.198,0-0.386,0.029-0.562,0.088c-0.176,0.06-0.342,0.126-0.497,0.199
		l-0.188-0.462c0.189-0.101,0.396-0.179,0.619-0.235c0.223-0.058,0.444-0.086,0.663-0.086c0.454,0,0.791,0.101,1.012,0.301
		s0.332,0.52,0.332,0.957v2.557H140.891z M139.623,147.072c0.344,0,0.615-0.093,0.812-0.278c0.197-0.186,0.295-0.449,0.295-0.791
		v-0.339l-0.554,0.024c-0.431,0.016-0.745,0.084-0.942,0.205c-0.197,0.121-0.295,0.312-0.295,0.571c0,0.195,0.06,0.346,0.179,0.451
		C139.239,147.021,139.407,147.072,139.623,147.072z"/>
	<path d="M144.278,147.568c-0.503,0-0.891-0.182-1.162-0.543h-0.041l0.014,0.14c0.018,0.178,0.027,0.336,0.027,0.476v1.541h-0.615
		v-5.435h0.506l0.082,0.513h0.027c0.146-0.205,0.314-0.354,0.506-0.444s0.413-0.137,0.663-0.137c0.488,0,0.866,0.169,1.137,0.508
		c0.27,0.338,0.405,0.815,0.405,1.431c0,0.612-0.136,1.091-0.407,1.436C145.149,147.396,144.768,147.568,144.278,147.568z
		 M144.176,144.195c-0.372,0-0.64,0.104-0.805,0.314c-0.166,0.209-0.25,0.538-0.255,0.987v0.12c0,0.508,0.084,0.875,0.253,1.102
		s0.442,0.34,0.82,0.34c0.314,0,0.56-0.127,0.736-0.383c0.177-0.255,0.265-0.61,0.265-1.066c0-0.457-0.088-0.808-0.265-1.051
		C144.75,144.316,144.5,144.195,144.176,144.195z"/>
	<path d="M148.558,143.679c0.167,0,0.313,0.014,0.441,0.041l-0.075,0.567c-0.139-0.032-0.274-0.048-0.407-0.048
		c-0.198,0-0.382,0.055-0.552,0.164c-0.17,0.109-0.303,0.261-0.398,0.453s-0.144,0.406-0.144,0.641v2.003h-0.615v-3.753h0.506
		l0.068,0.687h0.027c0.144-0.248,0.313-0.436,0.509-0.563S148.328,143.679,148.558,143.679z"/>
	<path d="M151.049,144.215l-0.041-0.074c0.05-0.205,0.131-0.461,0.243-0.766c0.112-0.306,0.231-0.597,0.359-0.872h0.455
		c-0.15,0.579-0.268,1.149-0.352,1.712H151.049z"/>
	<path d="M154.631,147.5h-0.602v-3.493c0-0.31,0.009-0.597,0.027-0.861c-0.064,0.068-0.132,0.132-0.205,0.191
		c-0.232,0.193-0.486,0.403-0.762,0.629l-0.321-0.413l1.354-1.05h0.509V147.5z"/>
	<path d="M158.145,142.432c0.456,0,0.819,0.105,1.09,0.317s0.407,0.505,0.407,0.878c0,0.251-0.076,0.476-0.228,0.674
		c-0.151,0.198-0.394,0.383-0.726,0.554c0.403,0.196,0.69,0.4,0.86,0.613c0.169,0.213,0.254,0.459,0.254,0.737
		c0,0.414-0.147,0.745-0.441,0.992s-0.693,0.371-1.196,0.371c-0.533,0-0.946-0.116-1.237-0.349s-0.438-0.563-0.438-0.995
		c0-0.569,0.345-1.015,1.036-1.336c-0.31-0.178-0.533-0.369-0.67-0.574s-0.205-0.437-0.205-0.693c0-0.363,0.136-0.651,0.409-0.867
		C157.332,142.539,157.694,142.432,158.145,142.432z M157.092,146.232c0,0.264,0.094,0.471,0.282,0.621
		c0.188,0.15,0.447,0.227,0.777,0.227c0.326,0,0.582-0.077,0.769-0.231c0.187-0.153,0.28-0.366,0.28-0.638
		c0-0.219-0.089-0.413-0.267-0.584s-0.476-0.333-0.896-0.485c-0.331,0.142-0.571,0.299-0.721,0.472S157.092,145.992,157.092,146.232
		z M158.138,142.93c-0.269,0-0.483,0.064-0.643,0.191c-0.16,0.128-0.239,0.305-0.239,0.53c0,0.144,0.031,0.271,0.092,0.38
		s0.15,0.207,0.267,0.293c0.116,0.087,0.302,0.184,0.557,0.291c0.312-0.13,0.534-0.272,0.665-0.428
		c0.131-0.154,0.196-0.333,0.196-0.536c0-0.228-0.081-0.405-0.243-0.531C158.629,142.993,158.412,142.93,158.138,142.93z"/>
</g>
<g>
	<path d="M318.633,149.182c-0.214,0-0.394-0.028-0.54-0.086v-0.495c0.157,0.046,0.312,0.068,0.465,0.068
		c0.178,0,0.309-0.049,0.392-0.146s0.125-0.244,0.125-0.442v-4.334h0.615v4.313c0,0.374-0.09,0.654-0.269,0.841
		S318.979,149.182,318.633,149.182z M319.026,142.732c0-0.137,0.034-0.236,0.104-0.298c0.069-0.062,0.155-0.093,0.258-0.093
		c0.096,0,0.18,0.031,0.251,0.093c0.072,0.062,0.107,0.161,0.107,0.298c0,0.134-0.035,0.233-0.107,0.297
		c-0.071,0.063-0.155,0.096-0.251,0.096c-0.103,0-0.188-0.032-0.258-0.096C319.061,142.966,319.026,142.866,319.026,142.732z"/>
	<path d="M321.46,143.747v2.417c0,0.303,0.067,0.527,0.203,0.675c0.136,0.146,0.346,0.22,0.631,0.22c0.385,0,0.665-0.106,0.841-0.32
		c0.175-0.215,0.263-0.56,0.263-1.036v-1.955h0.619v3.753h-0.506l-0.089-0.496h-0.031c-0.111,0.181-0.27,0.319-0.475,0.418
		c-0.205,0.098-0.443,0.146-0.715,0.146c-0.451,0-0.791-0.108-1.02-0.324c-0.229-0.217-0.344-0.563-0.344-1.039v-2.458H321.46z"/>
	<path d="M325.821,147.5h-0.615v-5.318h0.615V147.5z"/>
	<path d="M328.36,144.215l-0.041-0.074c0.051-0.205,0.131-0.461,0.243-0.766c0.111-0.306,0.231-0.597,0.358-0.872h0.455
		c-0.15,0.579-0.268,1.149-0.353,1.712H328.36z"/>
	<path d="M331.942,147.5h-0.602v-3.493c0-0.31,0.01-0.597,0.027-0.861c-0.063,0.068-0.132,0.132-0.205,0.191
		c-0.232,0.193-0.486,0.403-0.762,0.629l-0.321-0.413l1.354-1.05h0.509V147.5z"/>
	<path d="M337.101,144.636c0,1.955-0.766,2.933-2.297,2.933c-0.265,0-0.475-0.022-0.629-0.068v-0.526
		c0.175,0.062,0.38,0.093,0.615,0.093c0.371,0,0.678-0.075,0.919-0.225c0.242-0.149,0.426-0.366,0.552-0.652
		c0.127-0.286,0.199-0.666,0.218-1.141h-0.045c-0.255,0.388-0.651,0.582-1.189,0.582c-0.439,0-0.789-0.135-1.048-0.402
		c-0.258-0.268-0.388-0.637-0.388-1.109c0-0.515,0.145-0.925,0.435-1.23c0.289-0.305,0.677-0.457,1.162-0.457
		c0.342,0,0.641,0.087,0.896,0.261c0.257,0.175,0.454,0.429,0.592,0.763S337.101,144.183,337.101,144.636z M335.405,142.951
		c-0.311,0-0.552,0.101-0.725,0.304c-0.174,0.203-0.26,0.489-0.26,0.858c0,0.332,0.081,0.587,0.244,0.764s0.4,0.265,0.713,0.265
		c0.205,0,0.392-0.042,0.561-0.125c0.168-0.083,0.301-0.195,0.396-0.337c0.096-0.141,0.144-0.29,0.144-0.447
		c0-0.228-0.045-0.441-0.136-0.639c-0.09-0.199-0.216-0.355-0.377-0.471C335.804,143.008,335.617,142.951,335.405,142.951z"/>
</g>
<g>
	<path d="M67.834,145.617c0,0.612-0.155,1.091-0.465,1.436c-0.31,0.344-0.738,0.516-1.285,0.516c-0.339,0-0.64-0.079-0.902-0.237
		s-0.464-0.386-0.605-0.683c-0.141-0.296-0.212-0.64-0.212-1.031c0-0.611,0.153-1.087,0.458-1.428s0.734-0.511,1.285-0.511
		c0.529,0,0.949,0.174,1.259,0.521C67.679,144.548,67.834,145.02,67.834,145.617z M65.001,145.617c0,0.471,0.093,0.829,0.279,1.074
		c0.186,0.245,0.459,0.367,0.822,0.367c0.358,0,0.63-0.122,0.817-0.367s0.28-0.604,0.28-1.074c0-0.473-0.094-0.827-0.282-1.065
		c-0.188-0.238-0.463-0.356-0.825-0.356C65.364,144.195,65.001,144.669,65.001,145.617z"/>
	<path d="M70.312,147.568c-0.54,0-0.96-0.166-1.261-0.497c-0.301-0.332-0.451-0.808-0.451-1.427c0-0.629,0.152-1.114,0.457-1.455
		c0.304-0.341,0.737-0.511,1.3-0.511c0.182,0,0.363,0.019,0.542,0.057c0.179,0.037,0.327,0.086,0.443,0.146l-0.188,0.512
		c-0.317-0.118-0.587-0.178-0.81-0.178c-0.378,0-0.657,0.119-0.837,0.357s-0.27,0.594-0.27,1.064c0,0.454,0.09,0.801,0.27,1.041
		s0.447,0.361,0.8,0.361c0.331,0,0.655-0.073,0.974-0.219v0.547C71.02,147.501,70.698,147.568,70.312,147.568z"/>
	<path d="M73.423,147.066c0.08,0,0.173-0.009,0.28-0.024s0.188-0.034,0.243-0.055v0.472c-0.057,0.025-0.146,0.05-0.265,0.073
		c-0.12,0.024-0.241,0.036-0.364,0.036c-0.734,0-1.101-0.387-1.101-1.158v-2.185h-0.53v-0.294l0.537-0.246l0.246-0.8h0.366v0.861
		h1.083v0.479h-1.083v2.167c0,0.217,0.052,0.383,0.156,0.499C73.094,147.008,73.238,147.066,73.423,147.066z"/>
	<path d="M76.044,144.215l-0.041-0.074c0.05-0.205,0.131-0.461,0.243-0.766c0.112-0.306,0.231-0.597,0.359-0.872h0.455
		c-0.15,0.579-0.268,1.149-0.352,1.712H76.044z"/>
	<path d="M79.626,147.5h-0.602v-3.493c0-0.31,0.009-0.597,0.027-0.861c-0.064,0.068-0.132,0.132-0.205,0.191
		c-0.232,0.193-0.486,0.403-0.762,0.629l-0.321-0.413l1.354-1.05h0.509V147.5z"/>
	<path d="M82.098,147.5l2.051-4.437h-2.697v-0.561h3.353v0.476l-2.03,4.521H82.098z"/>
</g>
<g>
	<path d="M213.834,145.617c0,0.612-0.155,1.091-0.465,1.436c-0.31,0.344-0.738,0.516-1.285,0.516c-0.339,0-0.64-0.079-0.902-0.237
		s-0.464-0.386-0.605-0.683c-0.141-0.296-0.212-0.64-0.212-1.031c0-0.611,0.153-1.087,0.458-1.428s0.734-0.511,1.285-0.511
		c0.529,0,0.949,0.174,1.259,0.521C213.679,144.548,213.834,145.02,213.834,145.617z M211.001,145.617
		c0,0.471,0.093,0.829,0.279,1.074c0.186,0.245,0.459,0.367,0.822,0.367c0.358,0,0.63-0.122,0.817-0.367s0.28-0.604,0.28-1.074
		c0-0.473-0.094-0.827-0.282-1.065c-0.188-0.238-0.463-0.356-0.825-0.356C211.364,144.195,211.001,144.669,211.001,145.617z"/>
	<path d="M216.312,147.568c-0.54,0-0.96-0.166-1.261-0.497c-0.301-0.332-0.451-0.808-0.451-1.427c0-0.629,0.152-1.114,0.457-1.455
		c0.304-0.341,0.737-0.511,1.3-0.511c0.182,0,0.363,0.019,0.542,0.057c0.179,0.037,0.327,0.086,0.443,0.146l-0.188,0.512
		c-0.317-0.118-0.587-0.178-0.81-0.178c-0.378,0-0.657,0.119-0.837,0.357s-0.27,0.594-0.27,1.064c0,0.454,0.09,0.801,0.27,1.041
		s0.447,0.361,0.8,0.361c0.331,0,0.655-0.073,0.974-0.219v0.547C217.02,147.501,216.698,147.568,216.312,147.568z"/>
	<path d="M219.423,147.066c0.08,0,0.173-0.009,0.28-0.024s0.188-0.034,0.243-0.055v0.472c-0.057,0.025-0.146,0.05-0.265,0.073
		c-0.12,0.024-0.241,0.036-0.364,0.036c-0.734,0-1.101-0.387-1.101-1.158v-2.185h-0.53v-0.294l0.537-0.246l0.246-0.8h0.366v0.861
		h1.083v0.479h-1.083v2.167c0,0.217,0.052,0.383,0.156,0.499C219.094,147.008,219.238,147.066,219.423,147.066z"/>
	<path d="M222.044,144.215l-0.041-0.074c0.05-0.205,0.131-0.461,0.243-0.766c0.112-0.306,0.231-0.597,0.359-0.872h0.455
		c-0.15,0.579-0.268,1.149-0.352,1.712H222.044z"/>
	<path d="M225.626,147.5h-0.602v-3.493c0-0.31,0.009-0.597,0.027-0.861c-0.064,0.068-0.132,0.132-0.205,0.191
		c-0.232,0.193-0.486,0.403-0.762,0.629l-0.321-0.413l1.354-1.05h0.509V147.5z"/>
	<path d="M229.14,142.432c0.456,0,0.819,0.105,1.09,0.317s0.407,0.505,0.407,0.878c0,0.251-0.076,0.476-0.228,0.674
		c-0.151,0.198-0.394,0.383-0.726,0.554c0.403,0.196,0.69,0.4,0.86,0.613c0.169,0.213,0.254,0.459,0.254,0.737
		c0,0.414-0.147,0.745-0.441,0.992s-0.693,0.371-1.196,0.371c-0.533,0-0.946-0.116-1.237-0.349s-0.438-0.563-0.438-0.995
		c0-0.569,0.345-1.015,1.036-1.336c-0.31-0.178-0.533-0.369-0.67-0.574s-0.205-0.437-0.205-0.693c0-0.363,0.136-0.651,0.409-0.867
		C228.327,142.539,228.689,142.432,229.14,142.432z M228.087,146.232c0,0.264,0.094,0.471,0.282,0.621
		c0.188,0.15,0.447,0.227,0.777,0.227c0.326,0,0.582-0.077,0.769-0.231c0.187-0.153,0.28-0.366,0.28-0.638
		c0-0.219-0.089-0.413-0.267-0.584s-0.476-0.333-0.896-0.485c-0.331,0.142-0.571,0.299-0.721,0.472S228.087,145.992,228.087,146.232
		z M229.133,142.93c-0.269,0-0.483,0.064-0.643,0.191c-0.16,0.128-0.239,0.305-0.239,0.53c0,0.144,0.031,0.271,0.092,0.38
		s0.15,0.207,0.267,0.293c0.116,0.087,0.302,0.184,0.557,0.291c0.312-0.13,0.534-0.272,0.665-0.428
		c0.131-0.154,0.196-0.333,0.196-0.536c0-0.228-0.081-0.405-0.243-0.531C229.625,142.993,229.407,142.93,229.133,142.93z"/>
</g>
<g>
	<path d="M247.133,149.182c-0.214,0-0.394-0.028-0.54-0.086v-0.495c0.157,0.046,0.312,0.068,0.465,0.068
		c0.178,0,0.308-0.049,0.391-0.146c0.083-0.097,0.125-0.244,0.125-0.442v-4.334h0.615v4.313c0,0.374-0.089,0.654-0.269,0.841
		C247.742,149.088,247.479,149.182,247.133,149.182z M247.526,142.732c0-0.137,0.035-0.236,0.104-0.298
		c0.069-0.062,0.155-0.093,0.258-0.093c0.096,0,0.18,0.031,0.251,0.093c0.072,0.062,0.108,0.161,0.108,0.298
		c0,0.134-0.036,0.233-0.108,0.297c-0.071,0.063-0.155,0.096-0.251,0.096c-0.103,0-0.188-0.032-0.258-0.096
		C247.561,142.966,247.526,142.866,247.526,142.732z"/>
	<path d="M251.696,147.5l-0.12-0.533h-0.027c-0.187,0.234-0.373,0.394-0.559,0.477c-0.186,0.083-0.419,0.125-0.702,0.125
		c-0.369,0-0.659-0.097-0.868-0.291c-0.209-0.193-0.314-0.467-0.314-0.82c0-0.761,0.601-1.159,1.801-1.195l0.636-0.024v-0.222
		c0-0.285-0.062-0.495-0.185-0.631s-0.32-0.203-0.591-0.203c-0.198,0-0.386,0.029-0.562,0.088c-0.176,0.06-0.342,0.126-0.497,0.199
		l-0.188-0.462c0.189-0.101,0.396-0.179,0.619-0.235c0.223-0.058,0.444-0.086,0.663-0.086c0.454,0,0.791,0.101,1.012,0.301
		s0.332,0.52,0.332,0.957v2.557H251.696z M250.428,147.072c0.344,0,0.615-0.093,0.812-0.278c0.197-0.186,0.295-0.449,0.295-0.791
		v-0.339l-0.554,0.024c-0.431,0.016-0.745,0.084-0.942,0.205c-0.197,0.121-0.295,0.312-0.295,0.571c0,0.195,0.06,0.346,0.179,0.451
		C250.043,147.021,250.211,147.072,250.428,147.072z"/>
	<path d="M255.862,147.5v-2.399c0-0.306-0.068-0.532-0.203-0.682c-0.136-0.149-0.348-0.224-0.638-0.224
		c-0.385,0-0.665,0.106-0.839,0.319c-0.175,0.213-0.262,0.56-0.262,1.04v1.945h-0.615v-3.753h0.496l0.092,0.513h0.034
		c0.116-0.185,0.279-0.327,0.489-0.429s0.441-0.152,0.694-0.152c0.46,0,0.802,0.111,1.025,0.335s0.335,0.57,0.335,1.043v2.443
		H255.862z"/>
	<path d="M258.983,144.215l-0.041-0.074c0.05-0.205,0.131-0.461,0.243-0.766c0.112-0.306,0.231-0.597,0.359-0.872h0.455
		c-0.15,0.579-0.268,1.149-0.352,1.712H258.983z"/>
	<path d="M262.565,147.5h-0.602v-3.493c0-0.31,0.009-0.597,0.027-0.861c-0.064,0.068-0.132,0.132-0.205,0.191
		c-0.232,0.193-0.486,0.403-0.762,0.629l-0.321-0.413l1.354-1.05h0.509V147.5z"/>
	<path d="M267.723,144.636c0,1.955-0.766,2.933-2.297,2.933c-0.264,0-0.474-0.022-0.629-0.068v-0.526
		c0.175,0.062,0.38,0.093,0.615,0.093c0.372,0,0.678-0.075,0.919-0.225s0.426-0.366,0.552-0.652
		c0.127-0.286,0.199-0.666,0.217-1.141h-0.044c-0.255,0.388-0.652,0.582-1.189,0.582c-0.44,0-0.789-0.135-1.048-0.402
		c-0.258-0.268-0.388-0.637-0.388-1.109c0-0.515,0.145-0.925,0.434-1.23c0.29-0.305,0.677-0.457,1.162-0.457
		c0.342,0,0.641,0.087,0.897,0.261c0.257,0.175,0.454,0.429,0.592,0.763C267.654,143.789,267.723,144.183,267.723,144.636z
		 M266.027,142.951c-0.31,0-0.551,0.101-0.725,0.304s-0.26,0.489-0.26,0.858c0,0.332,0.082,0.587,0.245,0.764
		c0.163,0.177,0.4,0.265,0.712,0.265c0.205,0,0.392-0.042,0.561-0.125s0.301-0.195,0.396-0.337c0.096-0.141,0.144-0.29,0.144-0.447
		c0-0.228-0.045-0.441-0.135-0.639c-0.09-0.199-0.216-0.355-0.377-0.471S266.239,142.951,266.027,142.951z"/>
</g>
<g>
	<path d="M286.392,147.5l-0.12-0.533h-0.027c-0.187,0.234-0.373,0.394-0.559,0.477s-0.42,0.125-0.702,0.125
		c-0.369,0-0.659-0.097-0.868-0.291c-0.21-0.193-0.314-0.467-0.314-0.82c0-0.761,0.601-1.159,1.801-1.195l0.636-0.024v-0.222
		c0-0.285-0.062-0.495-0.185-0.631s-0.32-0.203-0.591-0.203c-0.198,0-0.386,0.029-0.562,0.088c-0.177,0.06-0.343,0.126-0.497,0.199
		l-0.188-0.462c0.189-0.101,0.396-0.179,0.619-0.235c0.223-0.058,0.444-0.086,0.663-0.086c0.453,0,0.79,0.101,1.012,0.301
		c0.221,0.2,0.331,0.52,0.331,0.957v2.557H286.392z M285.123,147.072c0.345,0,0.615-0.093,0.812-0.278
		c0.196-0.186,0.295-0.449,0.295-0.791v-0.339l-0.554,0.024c-0.431,0.016-0.744,0.084-0.941,0.205s-0.296,0.312-0.296,0.571
		c0,0.195,0.061,0.346,0.18,0.451C284.739,147.021,284.907,147.072,285.123,147.072z"/>
	<path d="M289.778,147.568c-0.503,0-0.891-0.182-1.162-0.543h-0.041l0.014,0.14c0.019,0.178,0.027,0.336,0.027,0.476v1.541h-0.615
		v-5.435h0.506l0.082,0.513h0.027c0.146-0.205,0.314-0.354,0.506-0.444s0.413-0.137,0.663-0.137c0.488,0,0.866,0.169,1.137,0.508
		c0.27,0.338,0.405,0.815,0.405,1.431c0,0.612-0.136,1.091-0.407,1.436C290.649,147.396,290.269,147.568,289.778,147.568z
		 M289.676,144.195c-0.371,0-0.64,0.104-0.805,0.314c-0.165,0.209-0.25,0.538-0.255,0.987v0.12c0,0.508,0.085,0.875,0.253,1.102
		c0.169,0.227,0.442,0.34,0.82,0.34c0.314,0,0.561-0.127,0.736-0.383c0.177-0.255,0.266-0.61,0.266-1.066
		c0-0.457-0.089-0.808-0.266-1.051C290.25,144.316,290,144.195,289.676,144.195z"/>
	<path d="M294.058,143.679c0.167,0,0.313,0.014,0.441,0.041l-0.075,0.567c-0.14-0.032-0.274-0.048-0.407-0.048
		c-0.198,0-0.382,0.055-0.552,0.164s-0.303,0.261-0.398,0.453s-0.144,0.406-0.144,0.641v2.003h-0.615v-3.753h0.506l0.068,0.687
		h0.027c0.144-0.248,0.313-0.436,0.51-0.563C293.614,143.742,293.828,143.679,294.058,143.679z"/>
	<path d="M296.55,144.215l-0.041-0.074c0.05-0.205,0.131-0.461,0.242-0.766c0.112-0.306,0.231-0.597,0.359-0.872h0.454
		c-0.15,0.579-0.268,1.149-0.352,1.712H296.55z"/>
	<path d="M300.132,147.5h-0.602v-3.493c0-0.31,0.009-0.597,0.027-0.861c-0.064,0.068-0.133,0.132-0.205,0.191
		c-0.232,0.193-0.486,0.403-0.763,0.629l-0.321-0.413l1.354-1.05h0.51V147.5z"/>
	<path d="M305.289,144.636c0,1.955-0.766,2.933-2.297,2.933c-0.264,0-0.474-0.022-0.629-0.068v-0.526
		c0.176,0.062,0.381,0.093,0.615,0.093c0.372,0,0.678-0.075,0.92-0.225c0.241-0.149,0.426-0.366,0.552-0.652
		c0.127-0.286,0.199-0.666,0.217-1.141h-0.044c-0.256,0.388-0.652,0.582-1.189,0.582c-0.44,0-0.789-0.135-1.048-0.402
		s-0.388-0.637-0.388-1.109c0-0.515,0.145-0.925,0.434-1.23c0.29-0.305,0.677-0.457,1.162-0.457c0.342,0,0.642,0.087,0.897,0.261
		c0.257,0.175,0.453,0.429,0.592,0.763C305.221,143.789,305.289,144.183,305.289,144.636z M303.594,142.951
		c-0.31,0-0.551,0.101-0.725,0.304c-0.173,0.203-0.26,0.489-0.26,0.858c0,0.332,0.082,0.587,0.245,0.764
		c0.162,0.177,0.4,0.265,0.712,0.265c0.205,0,0.393-0.042,0.561-0.125c0.169-0.083,0.301-0.195,0.396-0.337
		c0.096-0.141,0.144-0.29,0.144-0.447c0-0.228-0.045-0.441-0.135-0.639c-0.09-0.199-0.216-0.355-0.378-0.471
		C303.993,143.008,303.806,142.951,303.594,142.951z"/>
</g>
<g>
	<path d="M358.518,146.465c0,0.351-0.131,0.622-0.393,0.814c-0.263,0.192-0.63,0.289-1.104,0.289c-0.494,0-0.888-0.078-1.179-0.236
		v-0.561c0.412,0.201,0.81,0.301,1.192,0.301c0.311,0,0.536-0.05,0.677-0.15c0.142-0.1,0.212-0.234,0.212-0.402
		c0-0.148-0.067-0.273-0.203-0.377c-0.136-0.102-0.377-0.22-0.723-0.352c-0.354-0.137-0.602-0.254-0.745-0.351
		s-0.249-0.205-0.316-0.326s-0.101-0.268-0.101-0.44c0-0.309,0.125-0.551,0.376-0.729c0.25-0.178,0.595-0.267,1.032-0.267
		c0.426,0,0.824,0.084,1.196,0.253l-0.209,0.488c-0.38-0.159-0.724-0.238-1.028-0.238c-0.256,0-0.449,0.04-0.581,0.121
		c-0.133,0.081-0.198,0.191-0.198,0.333c0,0.137,0.057,0.25,0.171,0.34c0.113,0.09,0.379,0.215,0.796,0.374
		c0.312,0.117,0.543,0.225,0.692,0.325s0.259,0.213,0.33,0.339C358.482,146.139,358.518,146.289,358.518,146.465z"/>
	<path d="M361.023,147.568c-0.563,0-1.005-0.17-1.325-0.511c-0.319-0.341-0.479-0.81-0.479-1.407c0-0.602,0.149-1.08,0.447-1.437
		c0.299-0.356,0.702-0.535,1.21-0.535c0.472,0,0.848,0.152,1.128,0.456c0.28,0.305,0.421,0.717,0.421,1.236v0.372h-2.57
		c0.011,0.426,0.119,0.75,0.324,0.971s0.496,0.331,0.872,0.331c0.2,0,0.391-0.018,0.57-0.053c0.181-0.035,0.391-0.104,0.633-0.207
		v0.541c-0.208,0.088-0.402,0.151-0.585,0.188C361.487,147.55,361.271,147.568,361.023,147.568z M360.869,144.182
		c-0.294,0-0.526,0.094-0.697,0.283s-0.272,0.452-0.304,0.789h1.91c-0.004-0.351-0.085-0.617-0.242-0.799
		C361.379,144.272,361.156,144.182,360.869,144.182z"/>
	<path d="M365.152,147.568c-0.504,0-0.892-0.182-1.162-0.543h-0.041l0.014,0.14c0.018,0.178,0.027,0.336,0.027,0.476v1.541h-0.615
		v-5.435h0.506l0.082,0.513h0.027c0.146-0.205,0.314-0.354,0.506-0.444s0.412-0.137,0.663-0.137c0.487,0,0.866,0.169,1.137,0.508
		c0.27,0.338,0.404,0.815,0.404,1.431c0,0.612-0.136,1.091-0.406,1.436C366.022,147.396,365.642,147.568,365.152,147.568z
		 M365.05,144.195c-0.372,0-0.64,0.104-0.805,0.314c-0.166,0.209-0.251,0.538-0.255,0.987v0.12c0,0.508,0.084,0.875,0.253,1.102
		c0.168,0.227,0.441,0.34,0.82,0.34c0.314,0,0.56-0.127,0.736-0.383c0.177-0.255,0.265-0.61,0.265-1.066
		c0-0.457-0.088-0.808-0.265-1.051C365.623,144.316,365.373,144.195,365.05,144.195z"/>
	<path d="M368.936,147.066c0.08,0,0.174-0.009,0.28-0.024c0.107-0.016,0.188-0.034,0.243-0.055v0.472
		c-0.058,0.025-0.146,0.05-0.265,0.073c-0.12,0.024-0.241,0.036-0.364,0.036c-0.734,0-1.101-0.387-1.101-1.158v-2.185h-0.53v-0.294
		l0.537-0.246l0.246-0.8h0.365v0.861h1.084v0.479h-1.084v2.167c0,0.217,0.052,0.383,0.156,0.499
		C368.607,147.008,368.751,147.066,368.936,147.066z"/>
	<path d="M371.558,144.215l-0.041-0.074c0.05-0.205,0.131-0.461,0.242-0.766c0.112-0.306,0.231-0.597,0.359-0.872h0.454
		c-0.15,0.579-0.268,1.149-0.352,1.712H371.558z"/>
	<path d="M375.14,147.5h-0.602v-3.493c0-0.31,0.009-0.597,0.027-0.861c-0.064,0.068-0.133,0.132-0.205,0.191
		c-0.232,0.193-0.486,0.403-0.763,0.629l-0.321-0.413l1.354-1.05h0.51V147.5z"/>
	<path d="M380.297,144.636c0,1.955-0.766,2.933-2.297,2.933c-0.264,0-0.474-0.022-0.629-0.068v-0.526
		c0.176,0.062,0.381,0.093,0.615,0.093c0.372,0,0.678-0.075,0.92-0.225c0.241-0.149,0.426-0.366,0.552-0.652
		c0.127-0.286,0.199-0.666,0.217-1.141h-0.044c-0.256,0.388-0.652,0.582-1.189,0.582c-0.44,0-0.789-0.135-1.048-0.402
		s-0.388-0.637-0.388-1.109c0-0.515,0.145-0.925,0.434-1.23c0.29-0.305,0.677-0.457,1.162-0.457c0.342,0,0.642,0.087,0.897,0.261
		c0.257,0.175,0.453,0.429,0.592,0.763C380.229,143.789,380.297,144.183,380.297,144.636z M378.602,142.951
		c-0.31,0-0.551,0.101-0.725,0.304c-0.173,0.203-0.26,0.489-0.26,0.858c0,0.332,0.082,0.587,0.245,0.764
		c0.162,0.177,0.4,0.265,0.712,0.265c0.205,0,0.393-0.042,0.561-0.125c0.169-0.083,0.301-0.195,0.396-0.337
		c0.096-0.141,0.144-0.29,0.144-0.447c0-0.228-0.045-0.441-0.135-0.639c-0.09-0.199-0.216-0.355-0.378-0.471
		C379.001,143.008,378.813,142.951,378.602,142.951z"/>
</g>
<g>
	<path d="M391.633,148.682c-0.214,0-0.394-0.028-0.54-0.086v-0.495c0.157,0.046,0.312,0.068,0.465,0.068
		c0.178,0,0.309-0.049,0.392-0.146s0.125-0.244,0.125-0.442v-4.334h0.615v4.313c0,0.374-0.09,0.654-0.269,0.841
		S391.979,148.682,391.633,148.682z M392.026,142.232c0-0.137,0.034-0.236,0.104-0.298c0.069-0.062,0.155-0.093,0.258-0.093
		c0.096,0,0.18,0.031,0.251,0.093c0.072,0.062,0.107,0.161,0.107,0.298c0,0.134-0.035,0.233-0.107,0.297
		c-0.071,0.063-0.155,0.096-0.251,0.096c-0.103,0-0.188-0.032-0.258-0.096C392.061,142.466,392.026,142.366,392.026,142.232z"/>
	<path d="M396.196,147l-0.12-0.533h-0.027c-0.187,0.234-0.373,0.394-0.559,0.477s-0.42,0.125-0.702,0.125
		c-0.369,0-0.659-0.097-0.868-0.291c-0.21-0.193-0.314-0.467-0.314-0.82c0-0.761,0.601-1.159,1.801-1.195l0.636-0.024v-0.222
		c0-0.285-0.062-0.495-0.185-0.631s-0.32-0.203-0.591-0.203c-0.198,0-0.386,0.029-0.562,0.088c-0.177,0.06-0.343,0.126-0.497,0.199
		l-0.188-0.462c0.189-0.101,0.396-0.179,0.619-0.235c0.223-0.058,0.444-0.086,0.663-0.086c0.453,0,0.79,0.101,1.012,0.301
		c0.221,0.2,0.331,0.52,0.331,0.957V147H396.196z M394.928,146.572c0.345,0,0.615-0.093,0.812-0.278
		c0.196-0.186,0.295-0.449,0.295-0.791v-0.339l-0.554,0.024c-0.431,0.016-0.744,0.084-0.941,0.205s-0.296,0.312-0.296,0.571
		c0,0.195,0.061,0.346,0.18,0.451C394.544,146.521,394.712,146.572,394.928,146.572z"/>
	<path d="M400.362,147v-2.399c0-0.306-0.067-0.532-0.203-0.682s-0.348-0.224-0.638-0.224c-0.385,0-0.665,0.106-0.839,0.319
		c-0.175,0.213-0.262,0.56-0.262,1.04V147h-0.615v-3.753h0.496l0.092,0.513h0.034c0.116-0.185,0.279-0.327,0.489-0.429
		c0.209-0.102,0.44-0.152,0.693-0.152c0.461,0,0.803,0.111,1.025,0.335c0.224,0.224,0.335,0.57,0.335,1.043V147H400.362z"/>
	<path d="M403.483,143.715l-0.041-0.074c0.05-0.205,0.131-0.461,0.242-0.766c0.112-0.306,0.231-0.597,0.359-0.872h0.454
		c-0.15,0.579-0.268,1.149-0.352,1.712H403.483z"/>
	<path d="M408.221,147h-3.306v-0.513l1.31-1.323c0.394-0.398,0.655-0.684,0.782-0.854c0.128-0.172,0.223-0.337,0.285-0.496
		c0.063-0.159,0.095-0.332,0.095-0.516c0-0.265-0.079-0.471-0.236-0.619s-0.372-0.223-0.646-0.223c-0.205,0-0.399,0.035-0.583,0.104
		s-0.391,0.192-0.62,0.372l-0.328-0.413c0.467-0.393,0.978-0.588,1.531-0.588c0.465,0,0.833,0.118,1.105,0.356
		s0.408,0.562,0.408,0.973c0,0.219-0.04,0.43-0.119,0.634c-0.08,0.204-0.199,0.411-0.359,0.622c-0.159,0.211-0.427,0.5-0.803,0.866
		l-1.043,1.029v0.027h2.526V147z"/>
	<path d="M412.243,144.494c0,0.869-0.137,1.515-0.411,1.938c-0.275,0.424-0.692,0.636-1.253,0.636c-0.543,0-0.954-0.218-1.234-0.654
		s-0.42-1.076-0.42-1.92c0-0.87,0.135-1.516,0.405-1.938c0.27-0.422,0.686-0.633,1.249-0.633c0.542,0,0.955,0.219,1.239,0.656
		C412.102,143.018,412.243,143.656,412.243,144.494z M409.543,144.494c0,0.725,0.083,1.248,0.248,1.569s0.428,0.481,0.788,0.481
		c0.364,0,0.629-0.164,0.795-0.493c0.165-0.329,0.247-0.849,0.247-1.558c0-0.701-0.082-1.218-0.247-1.548
		c-0.166-0.33-0.431-0.495-0.795-0.495c-0.365,0-0.629,0.161-0.791,0.484C409.625,143.26,409.543,143.779,409.543,144.494z"/>
</g>
<line class="st3" x1="401" y1="112.5" x2="401" y2="130.5"/>
<g>
	<polyline class="st4" points="96,115.5 96,64.365 130,12.5 	"/>
	<g>
		<path d="M96.192,59.459l-0.348,0.524l-4.167-2.758l1.542-2.329l0.461,0.306l-1.193,1.805l1.477,0.977l1.121-1.694l0.459,0.304
			l-1.121,1.694L96.192,59.459z"/>
		<path d="M96.675,52.339c0.426,0.282,0.656,0.643,0.689,1.084c0.035,0.441-0.122,0.926-0.473,1.454l-0.316,0.479l1.622,1.073
			l-0.347,0.524l-4.168-2.758l0.73-1.104C95.104,52.05,95.857,51.798,96.675,52.339z M96.125,55.058l0.278-0.419
			c0.273-0.415,0.404-0.758,0.395-1.033c-0.01-0.275-0.164-0.51-0.461-0.707c-0.268-0.177-0.525-0.224-0.773-0.139
			c-0.247,0.085-0.492,0.311-0.734,0.677l-0.352,0.531L96.125,55.058z"/>
		<path d="M102.622,49.745l-0.352,0.531l-3.268-0.996c-0.486-0.149-0.808-0.261-0.964-0.334c0.198,0.175,0.435,0.427,0.708,0.756
			l2.193,2.583l-0.351,0.53l-4.897-1.655l0.363-0.547l2.973,1.038c0.391,0.133,0.766,0.285,1.124,0.457
			c-0.284-0.248-0.576-0.547-0.876-0.899l-2.027-2.399l0.358-0.542l3.042,0.91c0.394,0.119,0.778,0.265,1.154,0.436
			c-0.243-0.204-0.531-0.491-0.865-0.862l-2.113-2.325l0.363-0.547L102.622,49.745z"/>
		<path d="M103.867,43.25c0.688,0.455,1.09,0.991,1.205,1.607c0.115,0.616-0.06,1.274-0.522,1.976l-0.769,1.161l-4.167-2.758
			l0.85-1.284c0.428-0.647,0.941-1.034,1.535-1.16C102.595,42.667,103.218,42.819,103.867,43.25z M103.519,43.814
			c-0.531-0.351-1.018-0.486-1.464-0.405c-0.446,0.081-0.843,0.385-1.193,0.914l-0.452,0.684l3.269,2.164l0.376-0.568
			C104.8,45.475,104.622,44.544,103.519,43.814z"/>
		<path d="M103.69,42.018c-0.125-0.083-0.203-0.178-0.232-0.284c-0.029-0.105-0.006-0.217,0.072-0.335
			c0.079-0.12,0.174-0.188,0.283-0.206c0.11-0.018,0.229,0.015,0.356,0.1c0.122,0.081,0.196,0.177,0.226,0.289
			c0.027,0.111,0.004,0.226-0.072,0.341c-0.074,0.112-0.168,0.176-0.279,0.192C103.932,42.132,103.813,42.1,103.69,42.018z
			 M106.188,43.67c-0.126-0.083-0.202-0.178-0.229-0.284c-0.026-0.106-0.001-0.217,0.073-0.331c0.077-0.116,0.17-0.184,0.281-0.204
			c0.109-0.021,0.229,0.011,0.354,0.094c0.123,0.082,0.199,0.179,0.228,0.291s0.005,0.226-0.072,0.341
			c-0.074,0.112-0.167,0.177-0.278,0.192C106.432,43.787,106.312,43.753,106.188,43.67z"/>
		<path d="M111.075,36.973l-0.352,0.531l-3.269-0.995c-0.485-0.149-0.807-0.261-0.964-0.334c0.199,0.175,0.436,0.427,0.709,0.756
			l2.193,2.583l-0.351,0.53l-4.897-1.655l0.362-0.547l2.974,1.038c0.39,0.133,0.766,0.285,1.124,0.457
			c-0.284-0.248-0.576-0.547-0.876-0.899l-2.027-2.399l0.357-0.542l3.043,0.91c0.393,0.119,0.777,0.265,1.154,0.436
			c-0.243-0.204-0.531-0.491-0.865-0.862l-2.113-2.325l0.363-0.547L111.075,36.973z"/>
		<path d="M111.059,30.606c0.426,0.282,0.656,0.643,0.69,1.083c0.035,0.441-0.123,0.926-0.473,1.455l-0.316,0.479l1.622,1.073
			l-0.347,0.524l-4.168-2.758l0.73-1.104C109.487,30.316,110.241,30.065,111.059,30.606z M110.51,33.325l0.277-0.419
			c0.274-0.415,0.405-0.759,0.396-1.034c-0.011-0.275-0.165-0.51-0.461-0.707c-0.269-0.177-0.525-0.224-0.773-0.139
			s-0.492,0.311-0.734,0.677l-0.352,0.531L110.51,33.325z"/>
		<path d="M113.987,31.098l0.094,0.002c0.337,0.375,0.682,0.842,1.033,1.406l-0.252,0.379c-0.393-0.438-0.806-0.851-1.238-1.237
			L113.987,31.098z"/>
		<path d="M115.19,24.364c0.426,0.282,0.656,0.642,0.689,1.083c0.035,0.441-0.122,0.926-0.473,1.455l-0.316,0.479l1.622,1.073
			l-0.347,0.524l-4.168-2.758l0.73-1.104C113.619,24.074,114.373,23.823,115.19,24.364z M114.641,27.083l0.278-0.419
			c0.273-0.415,0.404-0.758,0.395-1.033c-0.011-0.275-0.164-0.51-0.461-0.707c-0.268-0.177-0.525-0.224-0.773-0.139
			c-0.247,0.085-0.492,0.311-0.734,0.677l-0.352,0.531L114.641,27.083z"/>
		<path d="M121.138,21.769l-0.352,0.531l-3.268-0.996c-0.486-0.149-0.808-0.261-0.964-0.334c0.198,0.175,0.435,0.427,0.708,0.756
			l2.193,2.583l-0.351,0.53l-4.897-1.655l0.362-0.547l2.974,1.038c0.391,0.133,0.766,0.285,1.124,0.457
			c-0.284-0.248-0.576-0.547-0.876-0.899l-2.027-2.399l0.358-0.542l3.042,0.91c0.394,0.119,0.778,0.265,1.154,0.436
			c-0.243-0.204-0.531-0.491-0.865-0.862l-2.113-2.325l0.363-0.547L121.138,21.769z"/>
		<path d="M121.12,15.403c0.426,0.282,0.657,0.643,0.691,1.083c0.035,0.441-0.123,0.926-0.473,1.455l-0.316,0.479l1.621,1.073
			l-0.347,0.524l-4.167-2.758l0.73-1.104C119.55,15.113,120.304,14.862,121.12,15.403z M120.571,18.122l0.277-0.419
			c0.275-0.415,0.406-0.759,0.396-1.034c-0.012-0.275-0.165-0.51-0.461-0.707c-0.269-0.177-0.525-0.224-0.773-0.139
			s-0.492,0.311-0.734,0.677l-0.352,0.531L120.571,18.122z"/>
	</g>
</g>
<g>
	<polyline class="st4" points="237,115.5 237,64.365 271,12.5 	"/>
	<g>
		<path d="M230.261,62.707c-0.297,0.449-0.379,0.9-0.249,1.355s0.456,0.855,0.976,1.2c0.539,0.356,1.035,0.506,1.492,0.449
			c0.457-0.056,0.837-0.313,1.141-0.773c0.196-0.296,0.362-0.667,0.498-1.11l0.455,0.302c-0.053,0.22-0.121,0.419-0.205,0.599
			c-0.084,0.178-0.197,0.375-0.338,0.587c-0.406,0.614-0.906,0.964-1.498,1.048c-0.593,0.084-1.23-0.1-1.915-0.553
			c-0.43-0.284-0.753-0.612-0.972-0.985c-0.218-0.373-0.314-0.768-0.289-1.187c0.026-0.418,0.175-0.833,0.447-1.243
			c0.291-0.441,0.627-0.771,1.006-0.99l0.307,0.505C230.743,62.144,230.458,62.409,230.261,62.707z"/>
		<path d="M233.911,61.632l1.723,1.139l-0.348,0.524l-4.167-2.758l0.761-1.149c0.342-0.517,0.693-0.834,1.054-0.953
			c0.361-0.117,0.739-0.045,1.134,0.216c0.553,0.366,0.742,0.891,0.564,1.575l2.624,0.093l-0.405,0.612l-2.39-0.13L233.911,61.632z
			 M233.467,61.337l0.413-0.625c0.225-0.338,0.322-0.629,0.292-0.874c-0.03-0.244-0.177-0.453-0.438-0.626
			c-0.263-0.174-0.506-0.221-0.73-0.144c-0.226,0.078-0.455,0.293-0.689,0.647l-0.395,0.596L233.467,61.337z"/>
		<path d="M234.778,57.951c-0.125-0.083-0.203-0.178-0.232-0.284c-0.029-0.105-0.006-0.217,0.072-0.335
			c0.079-0.12,0.174-0.188,0.283-0.206c0.11-0.018,0.229,0.015,0.356,0.1c0.122,0.081,0.196,0.177,0.226,0.29
			c0.027,0.111,0.004,0.225-0.072,0.341c-0.074,0.112-0.168,0.176-0.279,0.192C235.02,58.064,234.901,58.032,234.778,57.951z
			 M237.275,59.603c-0.126-0.083-0.202-0.178-0.229-0.284c-0.026-0.106-0.001-0.217,0.073-0.331c0.077-0.116,0.17-0.184,0.281-0.203
			c0.109-0.021,0.229,0.01,0.354,0.093c0.123,0.082,0.199,0.179,0.228,0.292c0.028,0.111,0.005,0.225-0.072,0.341
			c-0.074,0.112-0.167,0.177-0.278,0.192C237.52,59.719,237.4,59.686,237.275,59.603z"/>
		<path d="M242.163,52.905l-0.352,0.531l-3.268-0.995c-0.486-0.149-0.807-0.261-0.964-0.334c0.198,0.175,0.435,0.427,0.709,0.756
			l2.193,2.583l-0.351,0.53l-4.898-1.655l0.363-0.547l2.973,1.038c0.391,0.133,0.766,0.285,1.125,0.457
			c-0.285-0.248-0.576-0.547-0.877-0.9l-2.027-2.399l0.358-0.542l3.042,0.91c0.395,0.119,0.778,0.265,1.154,0.436
			c-0.242-0.204-0.531-0.491-0.864-0.862l-2.113-2.325l0.362-0.547L242.163,52.905z"/>
		<path d="M242.146,46.539c0.426,0.282,0.656,0.643,0.69,1.084c0.035,0.441-0.123,0.926-0.473,1.454l-0.316,0.479l1.622,1.073
			l-0.347,0.524l-4.168-2.758l0.73-1.104C240.575,46.249,241.329,45.998,242.146,46.539z M241.598,49.257l0.277-0.419
			c0.274-0.415,0.405-0.759,0.396-1.034c-0.011-0.275-0.165-0.51-0.461-0.707c-0.269-0.177-0.525-0.224-0.773-0.139
			s-0.492,0.311-0.734,0.677l-0.352,0.531L241.598,49.257z"/>
		<path d="M245.075,47.031l0.093,0.002c0.337,0.375,0.682,0.842,1.033,1.406l-0.251,0.379c-0.394-0.438-0.807-0.851-1.238-1.238
			L245.075,47.031z"/>
		<path d="M246.278,40.297c0.426,0.282,0.656,0.642,0.689,1.083c0.035,0.441-0.122,0.926-0.473,1.455l-0.316,0.479l1.622,1.073
			l-0.347,0.524l-4.168-2.758l0.73-1.104C244.707,40.007,245.461,39.756,246.278,40.297z M245.729,43.015l0.278-0.419
			c0.273-0.415,0.404-0.758,0.395-1.033c-0.01-0.275-0.164-0.51-0.461-0.707c-0.268-0.177-0.525-0.224-0.773-0.139
			c-0.247,0.085-0.492,0.311-0.734,0.677l-0.352,0.531L245.729,43.015z"/>
		<path d="M252.226,37.703l-0.352,0.531l-3.27-0.995c-0.485-0.149-0.807-0.261-0.963-0.334c0.199,0.175,0.436,0.427,0.709,0.756
			l2.193,2.583l-0.352,0.53l-4.896-1.655l0.361-0.547l2.975,1.038c0.39,0.133,0.766,0.285,1.123,0.457
			c-0.283-0.248-0.576-0.547-0.875-0.899l-2.028-2.399l0.358-0.542l3.042,0.91c0.394,0.119,0.778,0.265,1.154,0.436
			c-0.243-0.204-0.53-0.491-0.864-0.862l-2.113-2.325l0.362-0.547L252.226,37.703z"/>
		<path d="M252.208,31.335c0.426,0.282,0.657,0.643,0.691,1.083c0.035,0.441-0.123,0.926-0.473,1.455l-0.316,0.479l1.621,1.073
			l-0.347,0.524l-4.167-2.758l0.73-1.104C250.638,31.046,251.392,30.794,252.208,31.335z M251.659,34.054l0.277-0.419
			c0.275-0.415,0.406-0.759,0.396-1.034c-0.012-0.275-0.165-0.51-0.461-0.707c-0.269-0.177-0.525-0.224-0.773-0.139
			s-0.492,0.311-0.734,0.677l-0.352,0.531L251.659,34.054z"/>
		<path d="M255.138,31.827l0.094,0.002c0.336,0.375,0.681,0.842,1.033,1.406l-0.252,0.379c-0.394-0.438-0.806-0.851-1.238-1.237
			L255.138,31.827z"/>
		<path d="M259.058,27.379l-1.541,2.329l-4.168-2.758l1.541-2.329l0.463,0.306l-1.195,1.805l1.301,0.86l1.123-1.699l0.457,0.302
			l-1.125,1.699l1.488,0.985l1.194-1.805L259.058,27.379z"/>
		<path d="M258.489,21.847c0.426,0.282,0.656,0.643,0.69,1.083c0.034,0.441-0.123,0.926-0.473,1.455l-0.317,0.479l1.623,1.073
			l-0.348,0.524l-4.168-2.758l0.73-1.104C256.919,21.557,257.672,21.306,258.489,21.847z M257.94,24.565l0.277-0.419
			c0.273-0.415,0.404-0.759,0.395-1.034c-0.01-0.275-0.164-0.51-0.461-0.707c-0.268-0.177-0.525-0.224-0.772-0.139
			c-0.247,0.085-0.493,0.311-0.735,0.677l-0.352,0.531L257.94,24.565z"/>
		<path d="M259.933,17.003l2.696,1.785c0.476,0.314,0.753,0.705,0.835,1.171s-0.045,0.954-0.383,1.463
			c-0.333,0.504-0.729,0.803-1.188,0.899c-0.458,0.096-0.925-0.015-1.402-0.33l-2.685-1.777l0.349-0.528l2.703,1.788
			c0.34,0.225,0.663,0.309,0.969,0.25c0.307-0.058,0.58-0.27,0.822-0.634c0.227-0.344,0.311-0.669,0.248-0.977
			c-0.062-0.307-0.266-0.576-0.613-0.806l-2.697-1.785L259.933,17.003z"/>
		<path d="M260.659,15.905l0.787-1.189c0.369-0.559,0.72-0.907,1.05-1.045c0.331-0.138,0.673-0.089,1.028,0.146
			c0.248,0.164,0.406,0.365,0.479,0.607c0.07,0.241,0.045,0.506-0.078,0.796l0.027,0.019c0.268-0.285,0.535-0.447,0.803-0.487
			c0.268-0.041,0.539,0.029,0.814,0.212c0.372,0.247,0.578,0.567,0.618,0.96c0.041,0.393-0.089,0.817-0.392,1.273l-0.97,1.466
			L260.659,15.905z M262.778,16.554l0.51-0.771c0.217-0.327,0.321-0.598,0.314-0.816c-0.006-0.217-0.131-0.408-0.376-0.57
			c-0.228-0.151-0.446-0.178-0.655-0.082c-0.207,0.096-0.428,0.319-0.66,0.67l-0.457,0.691L262.778,16.554z M263.218,16.845l1.511,1
			l0.557-0.841c0.222-0.335,0.321-0.625,0.298-0.872c-0.021-0.248-0.164-0.458-0.426-0.631c-0.249-0.165-0.49-0.201-0.722-0.108
			c-0.231,0.092-0.461,0.309-0.688,0.651L263.218,16.845z"/>
		<path d="M268.147,11.589l-0.4,0.604l0.946,0.626l-0.33,0.5l-0.946-0.626l-1.32,1.995l-0.438-0.289l-1.509-3.819l0.353-0.534
			l2.782,1.841l0.399-0.604L268.147,11.589z M266.955,12.388l-1.312-0.868c-0.26-0.172-0.561-0.387-0.902-0.643l-0.018,0.025
			c0.036,0.054,0.086,0.14,0.15,0.257c0.064,0.117,0.111,0.216,0.141,0.295l0.951,2.426L266.955,12.388z"/>
	</g>
</g>
<g>
	<polyline class="st4" points="384,115.5 384,64.365 418,12.5 	"/>
	<g>
		<path d="M377.471,65.32l1.722,1.139l-0.348,0.524l-4.167-2.758l0.761-1.149c0.342-0.517,0.693-0.834,1.055-0.953
			c0.361-0.117,0.738-0.045,1.133,0.217c0.553,0.366,0.742,0.89,0.565,1.574l2.624,0.093l-0.406,0.612l-2.389-0.13L377.471,65.32z
			 M377.026,65.025l0.413-0.625c0.224-0.338,0.321-0.629,0.291-0.874c-0.03-0.243-0.177-0.452-0.438-0.625
			c-0.262-0.174-0.506-0.221-0.73-0.144c-0.225,0.078-0.455,0.294-0.688,0.647l-0.395,0.596L377.026,65.025z"/>
		<path d="M382.79,61.023l-1.541,2.329l-4.168-2.758l1.541-2.329l0.463,0.306l-1.195,1.805l1.301,0.86l1.124-1.699l0.456,0.302
			l-1.125,1.699l1.488,0.985l1.194-1.805L382.79,61.023z"/>
		<path d="M380.813,55.829c-0.297,0.449-0.38,0.9-0.25,1.356c0.131,0.455,0.456,0.855,0.977,1.2
			c0.538,0.356,1.035,0.505,1.492,0.449c0.456-0.056,0.836-0.314,1.141-0.773c0.195-0.296,0.361-0.667,0.497-1.11l0.456,0.302
			c-0.053,0.22-0.121,0.419-0.205,0.599c-0.084,0.178-0.197,0.374-0.338,0.587c-0.406,0.614-0.906,0.964-1.499,1.048
			c-0.593,0.084-1.231-0.101-1.915-0.553c-0.43-0.284-0.753-0.612-0.971-0.985c-0.219-0.372-0.314-0.768-0.289-1.186
			c0.025-0.419,0.174-0.833,0.446-1.244c0.292-0.441,0.628-0.771,1.007-0.989l0.306,0.504
			C381.296,55.266,381.011,55.531,380.813,55.829z"/>
		<path d="M382.927,54.705c-0.125-0.083-0.203-0.178-0.232-0.284c-0.029-0.105-0.006-0.217,0.072-0.335
			c0.079-0.12,0.174-0.188,0.283-0.206c0.11-0.017,0.229,0.016,0.356,0.1c0.122,0.081,0.196,0.176,0.225,0.289
			c0.028,0.111,0.005,0.226-0.071,0.341c-0.074,0.113-0.168,0.176-0.279,0.192C383.168,54.818,383.05,54.786,382.927,54.705z
			 M385.424,56.357c-0.126-0.083-0.202-0.178-0.229-0.284s-0.002-0.217,0.073-0.331c0.077-0.115,0.17-0.184,0.28-0.203
			c0.11-0.021,0.229,0.011,0.354,0.094c0.123,0.082,0.199,0.179,0.227,0.291c0.029,0.111,0.006,0.226-0.071,0.341
			c-0.074,0.113-0.167,0.177-0.278,0.192C385.668,56.473,385.549,56.44,385.424,56.357z"/>
		<path d="M390.312,49.659l-0.352,0.531l-3.268-0.995c-0.486-0.149-0.807-0.261-0.964-0.334c0.198,0.175,0.435,0.427,0.709,0.756
			l2.192,2.583l-0.35,0.53l-4.898-1.655l0.363-0.547l2.973,1.038c0.391,0.133,0.766,0.285,1.125,0.457
			c-0.285-0.248-0.576-0.547-0.877-0.899l-2.027-2.399l0.358-0.542l3.042,0.91c0.394,0.12,0.778,0.265,1.154,0.436
			c-0.242-0.203-0.531-0.491-0.864-0.862l-2.113-2.325l0.362-0.547L390.312,49.659z"/>
		<path d="M390.296,43.292c0.426,0.282,0.656,0.643,0.689,1.083c0.035,0.441-0.122,0.926-0.472,1.455l-0.317,0.479l1.623,1.073
			l-0.348,0.525l-4.168-2.758l0.73-1.104C388.725,43.002,389.479,42.751,390.296,43.292z M389.747,46.01l0.277-0.419
			c0.273-0.415,0.404-0.759,0.395-1.034c-0.01-0.275-0.164-0.51-0.461-0.707c-0.268-0.177-0.525-0.224-0.773-0.139
			c-0.247,0.085-0.492,0.311-0.734,0.677l-0.352,0.531L389.747,46.01z"/>
		<path d="M393.224,43.784l0.094,0.002c0.337,0.375,0.682,0.842,1.033,1.405l-0.252,0.379c-0.393-0.438-0.806-0.851-1.238-1.237
			L393.224,43.784z"/>
		<path d="M394.427,37.051c0.426,0.282,0.656,0.643,0.689,1.083c0.035,0.441-0.122,0.926-0.473,1.455l-0.316,0.479l1.622,1.073
			l-0.347,0.524l-4.168-2.758l0.73-1.103C392.855,36.761,393.609,36.51,394.427,37.051z M393.877,39.769l0.278-0.419
			c0.273-0.415,0.404-0.759,0.395-1.034c-0.011-0.275-0.164-0.51-0.461-0.707c-0.268-0.177-0.525-0.224-0.773-0.139
			c-0.247,0.085-0.492,0.311-0.734,0.677l-0.352,0.531L393.877,39.769z"/>
		<path d="M400.374,34.456l-0.352,0.531l-3.269-0.995c-0.485-0.149-0.807-0.261-0.963-0.334c0.198,0.175,0.435,0.427,0.708,0.756
			l2.193,2.583l-0.351,0.53l-4.897-1.655l0.362-0.547l2.974,1.038c0.391,0.133,0.766,0.285,1.124,0.457
			c-0.284-0.248-0.576-0.547-0.876-0.9l-2.027-2.399l0.357-0.542l3.043,0.91c0.394,0.119,0.777,0.265,1.154,0.436
			c-0.243-0.204-0.531-0.491-0.865-0.862l-2.113-2.325l0.363-0.547L400.374,34.456z"/>
		<path d="M400.356,28.089c0.426,0.282,0.657,0.643,0.691,1.084c0.035,0.441-0.123,0.926-0.473,1.454l-0.316,0.479l1.621,1.073
			l-0.347,0.524l-4.167-2.758l0.73-1.104C398.786,27.8,399.54,27.548,400.356,28.089z M399.808,30.808l0.277-0.419
			c0.275-0.415,0.406-0.759,0.396-1.034c-0.012-0.275-0.165-0.51-0.461-0.707c-0.269-0.177-0.525-0.224-0.773-0.139
			s-0.492,0.311-0.734,0.677l-0.352,0.531L399.808,30.808z"/>
		<path d="M403.286,28.581l0.094,0.002c0.336,0.375,0.681,0.842,1.033,1.405l-0.252,0.379c-0.394-0.438-0.807-0.851-1.238-1.237
			L403.286,28.581z"/>
		<path d="M407.206,24.132l-1.541,2.329l-4.168-2.758l1.542-2.329l0.462,0.306l-1.194,1.805l1.3,0.86l1.124-1.699l0.456,0.302
			l-1.124,1.699l1.487,0.985l1.195-1.805L407.206,24.132z"/>
		<path d="M406.638,18.601c0.426,0.282,0.656,0.643,0.689,1.083c0.035,0.441-0.122,0.926-0.472,1.455l-0.317,0.479l1.623,1.073
			l-0.348,0.524l-4.168-2.758l0.73-1.104C405.067,18.311,405.82,18.06,406.638,18.601z M406.089,21.319l0.277-0.419
			c0.273-0.415,0.404-0.759,0.395-1.034c-0.01-0.275-0.164-0.51-0.461-0.707c-0.268-0.177-0.525-0.224-0.772-0.139
			s-0.493,0.311-0.735,0.677l-0.352,0.531L406.089,21.319z"/>
		<path d="M408.081,13.757l2.696,1.785c0.476,0.314,0.753,0.705,0.835,1.171s-0.045,0.954-0.383,1.463
			c-0.333,0.504-0.729,0.803-1.188,0.899c-0.458,0.096-0.925-0.015-1.402-0.33l-2.685-1.777l0.349-0.528l2.703,1.788
			c0.34,0.225,0.662,0.309,0.969,0.25c0.307-0.058,0.58-0.269,0.822-0.634c0.227-0.343,0.311-0.669,0.248-0.977
			c-0.062-0.307-0.266-0.575-0.613-0.805l-2.697-1.785L408.081,13.757z"/>
		<path d="M408.808,12.659l0.787-1.189c0.369-0.559,0.719-0.907,1.05-1.045s0.673-0.089,1.028,0.146
			c0.247,0.164,0.406,0.365,0.479,0.607c0.07,0.242,0.044,0.506-0.079,0.796l0.028,0.019c0.268-0.285,0.535-0.447,0.803-0.487
			c0.268-0.041,0.539,0.03,0.814,0.212c0.372,0.247,0.578,0.566,0.618,0.959c0.04,0.393-0.089,0.817-0.392,1.273l-0.97,1.466
			L408.808,12.659z M410.927,13.308l0.51-0.771c0.217-0.327,0.321-0.598,0.314-0.815c-0.006-0.218-0.131-0.408-0.377-0.57
			c-0.228-0.151-0.445-0.179-0.654-0.082c-0.207,0.096-0.428,0.319-0.66,0.67l-0.457,0.69L410.927,13.308z M411.366,13.599l1.511,1
			l0.557-0.841c0.222-0.334,0.321-0.625,0.298-0.872c-0.021-0.248-0.164-0.458-0.426-0.631c-0.249-0.165-0.49-0.201-0.722-0.108
			c-0.231,0.092-0.461,0.309-0.688,0.651L411.366,13.599z"/>
		<path d="M417.3,6.827l-0.4,0.604l0.945,0.626l-0.33,0.499l-0.945-0.626l-1.321,1.996l-0.437-0.289l-1.51-3.819l0.354-0.533
			l2.781,1.841l0.4-0.604L417.3,6.827z M416.106,7.625l-1.311-0.868c-0.26-0.172-0.562-0.386-0.902-0.643l-0.018,0.025
			c0.035,0.053,0.086,0.14,0.15,0.257c0.064,0.118,0.111,0.217,0.141,0.296l0.951,2.426L416.106,7.625z"/>
	</g>
</g>
<g>
	<polyline class="st4" points="126,115.5 126,64.365 160,12.5 	"/>
	<g>
		<path d="M125.192,61.459l-0.348,0.524l-4.167-2.758l1.542-2.329l0.461,0.306l-1.193,1.805l1.477,0.977l1.121-1.694l0.459,0.304
			l-1.121,1.694L125.192,61.459z"/>
		<path d="M125.675,54.339c0.426,0.282,0.656,0.643,0.689,1.084c0.035,0.441-0.122,0.926-0.473,1.454l-0.316,0.479l1.622,1.073
			l-0.347,0.524l-4.168-2.758l0.73-1.104C124.104,54.05,124.857,53.798,125.675,54.339z M125.125,57.058l0.278-0.419
			c0.273-0.415,0.404-0.758,0.395-1.033c-0.01-0.275-0.164-0.51-0.461-0.707c-0.268-0.177-0.525-0.224-0.773-0.139
			c-0.247,0.085-0.492,0.311-0.734,0.677l-0.352,0.531L125.125,57.058z"/>
		<path d="M131.622,51.745l-0.352,0.531l-3.268-0.996c-0.486-0.149-0.808-0.261-0.964-0.334c0.198,0.175,0.435,0.427,0.708,0.756
			l2.193,2.583l-0.351,0.53l-4.897-1.655l0.363-0.547l2.973,1.038c0.391,0.133,0.766,0.285,1.124,0.457
			c-0.284-0.248-0.576-0.547-0.876-0.899l-2.027-2.399l0.358-0.542l3.042,0.91c0.394,0.119,0.778,0.265,1.154,0.436
			c-0.243-0.204-0.531-0.491-0.865-0.862l-2.113-2.325l0.363-0.547L131.622,51.745z"/>
		<path d="M132.867,45.25c0.688,0.455,1.09,0.991,1.205,1.607c0.115,0.616-0.06,1.274-0.522,1.976l-0.769,1.161l-4.167-2.758
			l0.85-1.284c0.428-0.647,0.941-1.034,1.535-1.16C131.595,44.667,132.218,44.819,132.867,45.25z M132.519,45.814
			c-0.531-0.351-1.018-0.486-1.464-0.405c-0.446,0.081-0.843,0.385-1.193,0.914l-0.452,0.684l3.269,2.164l0.376-0.568
			C133.8,47.475,133.622,46.544,132.519,45.814z"/>
		<path d="M132.69,44.018c-0.125-0.083-0.203-0.178-0.232-0.284c-0.029-0.105-0.006-0.217,0.072-0.335
			c0.079-0.12,0.174-0.188,0.283-0.206c0.11-0.018,0.229,0.015,0.356,0.1c0.122,0.081,0.196,0.177,0.226,0.289
			c0.027,0.111,0.004,0.226-0.072,0.341c-0.074,0.112-0.168,0.176-0.279,0.192C132.932,44.132,132.813,44.1,132.69,44.018z
			 M135.188,45.67c-0.126-0.083-0.202-0.178-0.229-0.284c-0.026-0.106-0.001-0.217,0.073-0.331c0.077-0.116,0.17-0.184,0.281-0.204
			c0.109-0.021,0.229,0.011,0.354,0.094c0.123,0.082,0.199,0.179,0.228,0.291s0.005,0.226-0.072,0.341
			c-0.074,0.112-0.167,0.177-0.278,0.192C135.432,45.787,135.312,45.753,135.188,45.67z"/>
		<path d="M137.727,37.908c0.688,0.455,1.09,0.99,1.205,1.607c0.115,0.616-0.059,1.274-0.522,1.976l-0.769,1.161l-4.167-2.758
			l0.85-1.284c0.428-0.647,0.941-1.034,1.535-1.159C136.454,37.325,137.077,37.478,137.727,37.908z M137.378,38.472
			c-0.531-0.351-1.018-0.486-1.464-0.405s-0.843,0.385-1.193,0.914l-0.452,0.684l3.269,2.164l0.376-0.568
			C138.659,40.132,138.481,39.202,137.378,38.472z"/>
		<path d="M139.285,33.775c0.426,0.282,0.656,0.642,0.69,1.083c0.035,0.441-0.123,0.926-0.473,1.454l-0.316,0.479l1.622,1.073
			l-0.347,0.524l-4.168-2.758l0.73-1.104C137.714,33.485,138.468,33.234,139.285,33.775z M138.736,36.493l0.277-0.419
			c0.274-0.415,0.405-0.758,0.396-1.033c-0.011-0.275-0.165-0.51-0.461-0.707c-0.269-0.177-0.525-0.224-0.773-0.139
			s-0.492,0.311-0.734,0.677l-0.352,0.531L138.736,36.493z"/>
		<path d="M140.729,28.93l2.696,1.785c0.476,0.314,0.753,0.705,0.835,1.171c0.082,0.466-0.045,0.954-0.383,1.463
			c-0.333,0.504-0.729,0.804-1.188,0.899c-0.458,0.096-0.925-0.014-1.402-0.33l-2.685-1.777l0.349-0.528l2.703,1.788
			c0.34,0.225,0.662,0.309,0.969,0.25c0.307-0.058,0.58-0.27,0.822-0.634c0.227-0.344,0.311-0.669,0.248-0.977
			c-0.062-0.307-0.266-0.576-0.613-0.806l-2.697-1.785L140.729,28.93z"/>
		<path d="M141.455,27.833l0.787-1.189c0.37-0.559,0.72-0.907,1.05-1.045c0.33-0.138,0.674-0.089,1.029,0.146
			c0.246,0.164,0.406,0.365,0.477,0.606c0.072,0.242,0.045,0.506-0.078,0.796l0.029,0.019c0.268-0.285,0.534-0.447,0.801-0.487
			c0.269-0.041,0.539,0.03,0.814,0.212c0.373,0.247,0.58,0.567,0.619,0.96c0.041,0.392-0.089,0.816-0.391,1.272l-0.971,1.466
			L141.455,27.833z M143.575,28.482l0.51-0.77c0.217-0.327,0.32-0.599,0.314-0.816c-0.006-0.218-0.132-0.408-0.377-0.57
			c-0.229-0.151-0.446-0.178-0.654-0.082c-0.209,0.096-0.429,0.319-0.661,0.67l-0.457,0.69L143.575,28.482z M144.015,28.772l1.51,1
			l0.557-0.841c0.223-0.334,0.32-0.625,0.299-0.871c-0.021-0.248-0.164-0.458-0.426-0.631c-0.25-0.165-0.49-0.201-0.723-0.108
			c-0.231,0.092-0.461,0.31-0.688,0.651L144.015,28.772z"/>
		<path d="M146.576,26.245l-0.456-0.302l0.936-1.414l0.456,0.302L146.576,26.245z"/>
		<path d="M151.106,22.305l-1.623-0.353l-1.094,1.653l0.963,1.35l-0.352,0.53l-3.107-4.396l0.314-0.474l5.259,1.145L151.106,22.305z
			 M148.915,21.801l-1.572-0.368l-0.757-0.212c0.19,0.208,0.36,0.405,0.507,0.592l0.949,1.309L148.915,21.801z"/>
		<path d="M150.472,19.524l1.722,1.139l-0.347,0.524l-4.168-2.758l0.76-1.149c0.343-0.517,0.694-0.834,1.055-0.953
			c0.361-0.117,0.738-0.045,1.135,0.217c0.553,0.366,0.741,0.89,0.564,1.574l2.623,0.093l-0.405,0.612l-2.39-0.13L150.472,19.524z
			 M150.026,19.229l0.414-0.625c0.223-0.338,0.32-0.629,0.291-0.874c-0.03-0.243-0.176-0.452-0.438-0.625
			c-0.263-0.174-0.506-0.222-0.729-0.144c-0.227,0.078-0.455,0.294-0.689,0.647l-0.395,0.596L150.026,19.229z"/>
		<path d="M155.024,16.385l-0.996,1.505l-0.303-0.2l0.214-0.564l-3.335-2.207l-0.441,0.413l-0.303-0.2l0.996-1.505l0.303,0.2
			l-0.207,0.568l3.334,2.207l0.436-0.417L155.024,16.385z"/>
		<path d="M157.288,12.964l-1.623-0.353l-1.094,1.653l0.963,1.351l-0.351,0.53l-3.108-4.396l0.314-0.474l5.26,1.146L157.288,12.964z
			 M155.097,12.46l-1.571-0.368l-0.757-0.213c0.189,0.208,0.359,0.405,0.506,0.592l0.949,1.309L155.097,12.46z"/>
	</g>
</g>
<g>
	<polyline class="st4" points="203,115.5 203,64.365 237,12.5 	"/>
	<g>
		<path d="M202.261,53.707c-0.297,0.449-0.379,0.9-0.249,1.355s0.456,0.855,0.976,1.2c0.539,0.356,1.035,0.506,1.492,0.449
			c0.457-0.056,0.837-0.313,1.141-0.773c0.196-0.296,0.362-0.667,0.498-1.11l0.455,0.302c-0.053,0.22-0.121,0.419-0.205,0.599
			c-0.084,0.178-0.197,0.375-0.338,0.587c-0.406,0.614-0.906,0.964-1.498,1.048c-0.593,0.084-1.23-0.1-1.915-0.553
			c-0.43-0.284-0.753-0.612-0.972-0.985c-0.218-0.373-0.314-0.768-0.289-1.187c0.026-0.418,0.175-0.833,0.447-1.243
			c0.291-0.441,0.627-0.771,1.006-0.99l0.307,0.505C202.743,53.144,202.458,53.409,202.261,53.707z"/>
		<path d="M205.911,52.632l1.723,1.139l-0.348,0.524l-4.167-2.758l0.761-1.149c0.342-0.517,0.693-0.834,1.054-0.953
			c0.361-0.117,0.739-0.045,1.134,0.216c0.553,0.366,0.742,0.891,0.564,1.575l2.624,0.093l-0.405,0.612l-2.39-0.13L205.911,52.632z
			 M205.467,52.337l0.413-0.625c0.225-0.338,0.322-0.629,0.292-0.874c-0.03-0.244-0.177-0.453-0.438-0.626
			c-0.263-0.174-0.506-0.221-0.73-0.144c-0.226,0.078-0.455,0.293-0.689,0.647l-0.395,0.596L205.467,52.337z"/>
		<path d="M206.778,48.951c-0.125-0.083-0.203-0.178-0.232-0.284c-0.029-0.105-0.006-0.217,0.072-0.335
			c0.079-0.12,0.174-0.188,0.283-0.206c0.11-0.018,0.229,0.015,0.356,0.1c0.122,0.081,0.196,0.177,0.226,0.29
			c0.027,0.111,0.004,0.225-0.072,0.341c-0.074,0.112-0.168,0.176-0.279,0.192C207.02,49.064,206.901,49.032,206.778,48.951z
			 M209.275,50.603c-0.126-0.083-0.202-0.178-0.229-0.284c-0.026-0.106-0.001-0.217,0.073-0.331c0.077-0.116,0.17-0.184,0.281-0.203
			c0.109-0.021,0.229,0.01,0.354,0.093c0.123,0.082,0.199,0.179,0.228,0.292c0.028,0.111,0.005,0.225-0.072,0.341
			c-0.074,0.112-0.167,0.177-0.278,0.192C209.52,50.719,209.4,50.686,209.275,50.603z"/>
		<path d="M211.815,42.839c0.688,0.455,1.09,0.991,1.205,1.607c0.115,0.616-0.059,1.275-0.523,1.976l-0.768,1.16l-4.168-2.758
			l0.85-1.283c0.429-0.647,0.941-1.034,1.536-1.16C210.542,42.257,211.165,42.409,211.815,42.839z M211.466,43.403
			c-0.529-0.351-1.018-0.486-1.463-0.405c-0.446,0.081-0.844,0.385-1.193,0.914l-0.453,0.684l3.27,2.164l0.375-0.567
			C212.749,45.064,212.569,44.134,211.466,43.403z"/>
		<path d="M213.373,38.708c0.426,0.282,0.656,0.642,0.69,1.083c0.035,0.441-0.123,0.926-0.473,1.455l-0.316,0.479l1.622,1.073
			l-0.347,0.524l-4.168-2.758l0.73-1.104C211.802,38.417,212.556,38.167,213.373,38.708z M212.824,41.426l0.277-0.419
			c0.274-0.415,0.405-0.758,0.396-1.033c-0.011-0.275-0.165-0.51-0.461-0.707c-0.269-0.177-0.525-0.224-0.773-0.139
			s-0.492,0.311-0.734,0.677l-0.352,0.531L212.824,41.426z"/>
		<path d="M214.816,33.864l2.696,1.785c0.476,0.314,0.754,0.705,0.836,1.171s-0.046,0.955-0.383,1.463
			c-0.334,0.504-0.729,0.803-1.188,0.899s-0.926-0.015-1.402-0.33l-2.686-1.777l0.35-0.527l2.702,1.788
			c0.34,0.225,0.663,0.309,0.97,0.25c0.307-0.058,0.58-0.27,0.821-0.634c0.228-0.344,0.312-0.669,0.249-0.977
			c-0.062-0.307-0.266-0.576-0.613-0.806l-2.697-1.785L214.816,33.864z"/>
		<path d="M215.543,32.766l0.787-1.189c0.37-0.559,0.72-0.907,1.05-1.045c0.33-0.138,0.674-0.089,1.029,0.146
			c0.246,0.164,0.406,0.365,0.477,0.606c0.072,0.242,0.045,0.506-0.078,0.796l0.029,0.019c0.268-0.285,0.534-0.447,0.802-0.487
			c0.268-0.041,0.539,0.03,0.814,0.212c0.372,0.247,0.579,0.567,0.618,0.96c0.041,0.392-0.089,0.816-0.391,1.272l-0.971,1.466
			L215.543,32.766z M217.663,33.415l0.51-0.77c0.217-0.327,0.32-0.598,0.314-0.816s-0.132-0.408-0.377-0.57
			c-0.229-0.151-0.446-0.178-0.654-0.082c-0.209,0.096-0.429,0.319-0.661,0.67l-0.457,0.69L217.663,33.415z M218.103,33.705l1.51,1
			l0.557-0.841c0.223-0.335,0.32-0.625,0.299-0.872c-0.021-0.248-0.164-0.458-0.426-0.631c-0.25-0.165-0.49-0.201-0.723-0.108
			c-0.231,0.092-0.461,0.31-0.688,0.651L218.103,33.705z"/>
		<path d="M220.663,31.179l-0.455-0.302l0.936-1.414l0.455,0.302L220.663,31.179z"/>
		<path d="M225.194,27.238l-1.623-0.353l-1.094,1.653l0.963,1.35l-0.352,0.53l-3.107-4.396l0.314-0.474l5.259,1.146L225.194,27.238z
			 M223.003,26.733l-1.572-0.368l-0.757-0.213c0.19,0.208,0.36,0.405,0.507,0.592l0.949,1.309L223.003,26.733z"/>
		<path d="M224.56,24.458l1.721,1.139l-0.347,0.524l-4.167-2.758l0.76-1.149c0.342-0.517,0.693-0.834,1.055-0.953
			c0.361-0.117,0.738-0.045,1.134,0.216c0.553,0.366,0.741,0.891,0.565,1.575l2.623,0.093l-0.406,0.612l-2.389-0.13L224.56,24.458z
			 M224.114,24.163l0.413-0.625c0.224-0.338,0.321-0.629,0.292-0.874c-0.031-0.243-0.177-0.453-0.439-0.626
			c-0.262-0.174-0.506-0.221-0.729-0.144c-0.226,0.078-0.455,0.293-0.688,0.647l-0.395,0.596L224.114,24.163z"/>
		<path d="M229.112,21.317l-0.996,1.505l-0.302-0.2l0.214-0.564l-3.335-2.207l-0.442,0.413l-0.302-0.2l0.996-1.505l0.302,0.2
			l-0.207,0.568l3.335,2.207l0.436-0.417L229.112,21.317z"/>
		<path d="M231.376,17.898l-1.623-0.353l-1.094,1.653l0.963,1.35l-0.352,0.53l-3.107-4.396l0.314-0.474l5.259,1.146L231.376,17.898z
			 M229.185,17.394l-1.572-0.368l-0.757-0.213c0.19,0.208,0.359,0.405,0.506,0.592l0.95,1.309L229.185,17.394z"/>
	</g>
</g>
<g>
	<polyline class="st4" points="310,115.5 310,64.365 344,12.5 	"/>
	<g>
		<path d="M310.471,56.32l1.722,1.139l-0.348,0.524l-4.167-2.758l0.761-1.149c0.342-0.517,0.693-0.834,1.055-0.953
			c0.361-0.117,0.738-0.045,1.133,0.217c0.553,0.366,0.742,0.89,0.565,1.574l2.624,0.093l-0.406,0.612l-2.389-0.13L310.471,56.32z
			 M310.026,56.025l0.413-0.625c0.224-0.338,0.321-0.629,0.291-0.874c-0.03-0.243-0.177-0.452-0.438-0.625
			c-0.262-0.174-0.506-0.221-0.73-0.144c-0.225,0.078-0.455,0.294-0.688,0.647l-0.395,0.596L310.026,56.025z"/>
		<path d="M315.79,52.023l-1.541,2.329l-4.168-2.758l1.541-2.329l0.463,0.306l-1.195,1.805l1.301,0.86l1.124-1.699l0.456,0.302
			l-1.125,1.699l1.488,0.985l1.194-1.805L315.79,52.023z"/>
		<path d="M313.813,46.829c-0.297,0.449-0.38,0.9-0.25,1.356c0.131,0.455,0.456,0.855,0.977,1.2
			c0.538,0.356,1.035,0.505,1.492,0.449c0.456-0.056,0.836-0.314,1.141-0.773c0.195-0.296,0.361-0.667,0.497-1.11l0.456,0.302
			c-0.053,0.22-0.121,0.419-0.205,0.599c-0.084,0.178-0.197,0.374-0.338,0.587c-0.406,0.614-0.906,0.964-1.499,1.048
			c-0.593,0.084-1.231-0.101-1.915-0.553c-0.43-0.284-0.753-0.612-0.971-0.985c-0.219-0.372-0.314-0.768-0.289-1.186
			c0.025-0.419,0.174-0.833,0.446-1.244c0.292-0.441,0.628-0.771,1.007-0.989l0.306,0.504
			C314.296,46.266,314.011,46.531,313.813,46.829z"/>
		<path d="M315.927,45.705c-0.125-0.083-0.203-0.178-0.232-0.284c-0.029-0.105-0.006-0.217,0.072-0.335
			c0.079-0.12,0.174-0.188,0.283-0.206c0.11-0.017,0.229,0.016,0.356,0.1c0.122,0.081,0.196,0.176,0.225,0.289
			c0.028,0.111,0.005,0.226-0.071,0.341c-0.074,0.113-0.168,0.176-0.279,0.192C316.168,45.818,316.05,45.786,315.927,45.705z
			 M318.424,47.357c-0.126-0.083-0.202-0.178-0.229-0.284s-0.002-0.217,0.073-0.331c0.077-0.115,0.17-0.184,0.28-0.203
			c0.11-0.021,0.229,0.011,0.354,0.094c0.123,0.082,0.199,0.179,0.227,0.291c0.029,0.111,0.006,0.226-0.071,0.341
			c-0.074,0.113-0.167,0.177-0.278,0.192C318.668,47.473,318.549,47.44,318.424,47.357z"/>
		<path d="M320.964,39.593c0.688,0.455,1.09,0.991,1.205,1.607c0.115,0.615-0.059,1.274-0.523,1.976l-0.768,1.16l-4.168-2.758
			l0.85-1.283c0.429-0.647,0.941-1.034,1.536-1.16C319.69,39.011,320.313,39.163,320.964,39.593z M320.614,40.158
			c-0.53-0.351-1.018-0.487-1.463-0.405c-0.446,0.081-0.844,0.385-1.193,0.914l-0.453,0.684l3.27,2.164l0.375-0.567
			C321.896,41.818,321.718,40.888,320.614,40.158z"/>
		<path d="M322.521,35.461c0.426,0.282,0.656,0.643,0.69,1.083c0.035,0.441-0.123,0.926-0.473,1.455l-0.316,0.479l1.621,1.073
			l-0.346,0.524l-4.168-2.758l0.73-1.103C320.95,35.171,321.704,34.92,322.521,35.461z M321.972,38.18l0.278-0.419
			c0.274-0.414,0.405-0.758,0.396-1.033c-0.011-0.275-0.165-0.51-0.461-0.707c-0.269-0.177-0.525-0.224-0.773-0.139
			c-0.248,0.085-0.492,0.311-0.734,0.677l-0.352,0.531L321.972,38.18z"/>
		<path d="M323.966,30.617l2.696,1.785c0.476,0.314,0.753,0.705,0.835,1.171s-0.045,0.954-0.383,1.463
			c-0.333,0.504-0.729,0.803-1.188,0.899c-0.458,0.096-0.926-0.015-1.402-0.33l-2.686-1.777l0.35-0.528l2.703,1.788
			c0.34,0.225,0.662,0.309,0.969,0.25c0.307-0.058,0.58-0.269,0.822-0.634c0.227-0.343,0.311-0.669,0.248-0.977
			c-0.062-0.307-0.266-0.575-0.613-0.805l-2.697-1.785L323.966,30.617z"/>
		<path d="M324.691,29.52l0.786-1.189c0.371-0.559,0.721-0.907,1.051-1.045c0.33-0.138,0.674-0.089,1.029,0.146
			c0.246,0.164,0.406,0.365,0.477,0.606c0.072,0.242,0.045,0.506-0.078,0.796l0.029,0.019c0.268-0.285,0.534-0.447,0.801-0.487
			c0.269-0.041,0.539,0.029,0.814,0.212c0.373,0.247,0.58,0.567,0.619,0.96c0.041,0.392-0.089,0.817-0.391,1.273l-0.971,1.466
			L324.691,29.52z M326.812,30.169l0.51-0.771c0.217-0.327,0.32-0.598,0.314-0.816c-0.006-0.217-0.132-0.408-0.377-0.57
			c-0.229-0.151-0.446-0.178-0.654-0.082c-0.209,0.095-0.429,0.319-0.661,0.67l-0.457,0.691L326.812,30.169z M327.251,30.459l1.51,1
			l0.557-0.841c0.223-0.335,0.32-0.625,0.299-0.872c-0.021-0.248-0.164-0.458-0.426-0.631c-0.25-0.165-0.49-0.201-0.723-0.108
			c-0.231,0.092-0.461,0.31-0.688,0.651L327.251,30.459z"/>
		<path d="M329.812,27.932l-0.456-0.302l0.936-1.414l0.456,0.302L329.812,27.932z"/>
		<path d="M334.343,23.991l-1.623-0.353l-1.094,1.653l0.963,1.351l-0.351,0.53l-3.108-4.396l0.314-0.474l5.26,1.145L334.343,23.991z
			 M332.152,23.487l-1.572-0.368l-0.757-0.213c0.189,0.208,0.359,0.405,0.506,0.592l0.949,1.309L332.152,23.487z"/>
		<path d="M333.708,21.21l1.722,1.139l-0.347,0.525l-4.168-2.758l0.76-1.149c0.343-0.517,0.694-0.834,1.055-0.953
			c0.361-0.117,0.738-0.045,1.135,0.217c0.553,0.366,0.741,0.891,0.564,1.574l2.623,0.093l-0.405,0.613l-2.39-0.13L333.708,21.21z
			 M333.263,20.916l0.414-0.625c0.223-0.338,0.32-0.629,0.291-0.873c-0.03-0.244-0.176-0.453-0.438-0.626
			c-0.263-0.174-0.506-0.221-0.729-0.144c-0.227,0.078-0.455,0.293-0.689,0.647l-0.395,0.596L333.263,20.916z"/>
		<path d="M338.261,18.071l-0.996,1.505l-0.302-0.2l0.214-0.564l-3.335-2.207l-0.442,0.413l-0.302-0.2l0.996-1.505l0.302,0.2
			l-0.207,0.568l3.335,2.207l0.436-0.417L338.261,18.071z"/>
		<path d="M340.524,14.651l-1.623-0.353l-1.094,1.653l0.963,1.351l-0.351,0.53l-3.108-4.396l0.314-0.474l5.26,1.145L340.524,14.651z
			 M338.333,14.147l-1.571-0.368l-0.757-0.213c0.189,0.208,0.359,0.405,0.506,0.592l0.949,1.309L338.333,14.147z"/>
	</g>
</g>
<g>
	<polyline class="st4" points="141,115.5 141,64.365 175,12.5 	"/>
	<g>
		<path d="M140.192,61.459l-0.348,0.524l-4.167-2.758l1.542-2.329l0.461,0.306l-1.193,1.805l1.477,0.977l1.121-1.694l0.459,0.304
			l-1.121,1.694L140.192,61.459z"/>
		<path d="M140.675,54.339c0.426,0.282,0.656,0.643,0.689,1.084c0.035,0.441-0.122,0.926-0.473,1.454l-0.316,0.479l1.622,1.073
			l-0.347,0.524l-4.168-2.758l0.73-1.104C139.104,54.05,139.857,53.798,140.675,54.339z M140.125,57.058l0.278-0.419
			c0.273-0.415,0.404-0.758,0.395-1.033c-0.01-0.275-0.164-0.51-0.461-0.707c-0.268-0.177-0.525-0.224-0.773-0.139
			c-0.247,0.085-0.492,0.311-0.734,0.677l-0.352,0.531L140.125,57.058z"/>
		<path d="M146.622,51.745l-0.352,0.531l-3.268-0.996c-0.486-0.149-0.808-0.261-0.964-0.334c0.198,0.175,0.435,0.427,0.708,0.756
			l2.193,2.583l-0.351,0.53l-4.897-1.655l0.363-0.547l2.973,1.038c0.391,0.133,0.766,0.285,1.124,0.457
			c-0.284-0.248-0.576-0.547-0.876-0.899l-2.027-2.399l0.358-0.542l3.042,0.91c0.394,0.119,0.778,0.265,1.154,0.436
			c-0.243-0.204-0.531-0.491-0.865-0.862l-2.113-2.325l0.363-0.547L146.622,51.745z"/>
		<path d="M147.867,45.25c0.688,0.455,1.09,0.991,1.205,1.607c0.115,0.616-0.06,1.274-0.522,1.976l-0.769,1.161l-4.167-2.758
			l0.85-1.284c0.428-0.647,0.941-1.034,1.535-1.16C146.595,44.667,147.218,44.819,147.867,45.25z M147.519,45.814
			c-0.531-0.351-1.018-0.486-1.464-0.405c-0.446,0.081-0.843,0.385-1.193,0.914l-0.452,0.684l3.269,2.164l0.376-0.568
			C148.8,47.475,148.622,46.544,147.519,45.814z"/>
		<path d="M147.69,44.018c-0.125-0.083-0.203-0.178-0.232-0.284c-0.029-0.105-0.006-0.217,0.072-0.335
			c0.079-0.12,0.174-0.188,0.283-0.206c0.11-0.018,0.229,0.015,0.356,0.1c0.122,0.081,0.196,0.177,0.226,0.289
			c0.027,0.111,0.004,0.226-0.072,0.341c-0.074,0.112-0.168,0.176-0.279,0.192C147.932,44.132,147.813,44.1,147.69,44.018z
			 M150.188,45.67c-0.126-0.083-0.202-0.178-0.229-0.284c-0.026-0.106-0.001-0.217,0.073-0.331c0.077-0.116,0.17-0.184,0.281-0.204
			c0.109-0.021,0.229,0.011,0.354,0.094c0.123,0.082,0.199,0.179,0.228,0.291s0.005,0.226-0.072,0.341
			c-0.074,0.112-0.167,0.177-0.278,0.192C150.432,45.787,150.312,45.753,150.188,45.67z"/>
		<path d="M154.183,40.322l-1.542,2.329l-4.167-2.758l1.541-2.329l0.462,0.306l-1.194,1.805l1.3,0.86l1.124-1.699l0.457,0.302
			l-1.125,1.699l1.488,0.985l1.193-1.805L154.183,40.322z"/>
		<path d="M153.613,34.79c0.426,0.282,0.657,0.642,0.69,1.083c0.035,0.441-0.122,0.926-0.473,1.455l-0.316,0.479l1.622,1.073
			l-0.347,0.524l-4.168-2.758l0.73-1.104C152.043,34.5,152.796,34.249,153.613,34.79z M153.064,37.508l0.278-0.419
			c0.273-0.415,0.404-0.758,0.395-1.033c-0.011-0.275-0.164-0.51-0.461-0.707c-0.268-0.177-0.525-0.224-0.773-0.139
			c-0.247,0.085-0.492,0.311-0.734,0.677l-0.352,0.531L153.064,37.508z"/>
		<path d="M155.058,29.945l2.697,1.785c0.475,0.314,0.752,0.705,0.835,1.171c0.081,0.466-0.046,0.954-0.383,1.463
			c-0.334,0.504-0.729,0.803-1.188,0.899c-0.457,0.096-0.925-0.015-1.402-0.33l-2.685-1.777l0.349-0.528l2.703,1.788
			c0.34,0.225,0.663,0.309,0.969,0.25c0.307-0.058,0.58-0.27,0.822-0.634c0.227-0.344,0.311-0.669,0.249-0.977
			c-0.062-0.307-0.267-0.576-0.614-0.806l-2.697-1.785L155.058,29.945z"/>
		<path d="M155.784,28.848l0.786-1.189c0.37-0.559,0.72-0.907,1.05-1.045c0.331-0.138,0.674-0.089,1.029,0.146
			c0.247,0.164,0.406,0.365,0.478,0.606s0.045,0.506-0.078,0.796l0.028,0.019c0.268-0.285,0.535-0.447,0.802-0.487
			c0.268-0.041,0.539,0.03,0.814,0.212c0.372,0.247,0.579,0.567,0.618,0.96c0.041,0.392-0.088,0.816-0.391,1.272l-0.97,1.466
			L155.784,28.848z M157.903,29.497l0.51-0.77c0.217-0.327,0.321-0.598,0.314-0.816c-0.006-0.218-0.131-0.408-0.377-0.57
			c-0.228-0.151-0.446-0.178-0.654-0.082c-0.208,0.096-0.429,0.319-0.661,0.67l-0.457,0.69L157.903,29.497z M158.343,29.787l1.51,1
			l0.558-0.841c0.222-0.335,0.32-0.625,0.298-0.872c-0.021-0.248-0.164-0.458-0.426-0.631c-0.25-0.165-0.49-0.201-0.722-0.108
			c-0.231,0.092-0.462,0.31-0.688,0.651L158.343,29.787z"/>
		<path d="M164.276,23.015l-0.4,0.604l0.946,0.626l-0.331,0.499l-0.945-0.626l-1.32,1.995l-0.438-0.289l-1.509-3.819l0.353-0.533
			l2.782,1.841l0.399-0.604L164.276,23.015z M163.083,23.813l-1.311-0.868c-0.26-0.172-0.561-0.386-0.902-0.643l-0.018,0.025
			c0.035,0.053,0.086,0.139,0.15,0.257s0.111,0.217,0.141,0.296l0.951,2.426L163.083,23.813z"/>
	</g>
</g>
<g>
</g>
<g>
</g>
<g>
</g>
<g>
</g>
<g>
</g>
<g>
</g>
<g>
</g>
<g>
</g>
<g>
</g>
<g>
</g>
<g>
</g>
<g>
</g>
<g>
</g>
<g>
</g>
<g>
</g>
</svg>
